<svg xmlns="http://www.w3.org/2000/svg" width="20.077" height="17" viewBox="0 0 20.077 17">
  <g id="theater" transform="translate(-0.002 0)">
    <path id="Path_28" data-name="Path 28" d="M235.214,1.361V1.8a4.569,4.569,0,0,1,.965.014.6.6,0,0,1,.446.337l.852,1.816a.6.6,0,0,1,.282.154.8.8,0,0,0,.365.213.792.792,0,0,0,.75-.2.608.608,0,0,1,.746-.1.6.6,0,0,1,.11.935,1.976,1.976,0,0,1-1.406.583l-.1,0,1.145,2.441q.073.154.138.311a3.765,3.765,0,0,1,3.781.909.611.611,0,0,1,.04.837.6.6,0,0,1-.872.026,2.566,2.566,0,0,0-2.571-.635,7.948,7.948,0,0,1-.033,3.988q.243.08.495.143a1.233,1.233,0,0,0,.592,0,6.758,6.758,0,0,0,5.132-6.56V1.361a.672.672,0,0,0-.435-.629,17.39,17.39,0,0,0-9.984,0,.671.671,0,0,0-.435.629Zm6.626,2.763a.6.6,0,0,1,.848,0,.79.79,0,0,0,1.117,0,.6.6,0,0,1,.848.848,1.989,1.989,0,0,1-2.813,0,.6.6,0,0,1,0-.848Zm0,0" transform="translate(-225.989)" fill="#301152"/>
    <path id="Path_29" data-name="Path 29" d="M12.292,81.92,9.879,76.776a.629.629,0,0,0-.618-.36A14.25,14.25,0,0,0,4.4,77.876,14.322,14.322,0,0,0,.192,80.659a.672.672,0,0,0-.126.754l2.4,5.117A6.758,6.758,0,0,0,9.9,90.289a1.227,1.227,0,0,0,.534-.251,6.757,6.757,0,0,0,1.86-8.118Zm-4.85-.383a1.991,1.991,0,0,1,2.547-1.195.6.6,0,1,1-.407,1.127.791.791,0,0,0-1.012.475.6.6,0,1,1-1.127-.407ZM5.124,83.56a.79.79,0,0,0-1.012.475.6.6,0,1,1-1.128-.407,1.989,1.989,0,0,1,2.547-1.195.6.6,0,1,1-.407,1.127Zm2.013,3.918a3.742,3.742,0,0,1-1.275-.224.6.6,0,1,1,.407-1.127,2.566,2.566,0,0,0,3.281-1.539.6.6,0,1,1,1.127.407A3.768,3.768,0,0,1,7.137,87.478Zm0,0" transform="translate(0 -73.418)" fill="#301152"/>
  </g>
</svg>
