<svg xmlns="http://www.w3.org/2000/svg" width="19.009" height="17.424" viewBox="0 0 19.009 17.424">
  <g id="muscles" transform="translate(-248 -248.667)">
    <path id="Path_89" data-name="Path 89" d="M16.375,27.676l-.138,0a5.131,5.131,0,0,0-4.551,2.769,4.3,4.3,0,0,0-4.568.62,16.4,16.4,0,0,0-.19-1.96,11.7,11.7,0,0,1-.15-1.43h2a1.181,1.181,0,0,0,.84-.348L11.2,25.742a1.184,1.184,0,0,0,.024-1.644,1.183,1.183,0,0,0-.328-1.645l-.961-.641a2.811,2.811,0,0,0-1.564-.474,4.332,4.332,0,0,0-3.083,1.277,16.891,16.891,0,0,0-3.549,5.164A14.732,14.732,0,0,0,.22,32.822,5.505,5.505,0,0,1,.066,34.27a1.757,1.757,0,0,0,.838,2,18.94,18.94,0,0,0,9.381,2.491h.573a18.875,18.875,0,0,0,5.98-.97l.277-.093a2.768,2.768,0,0,0,1.9-2.629V30.45A2.76,2.76,0,0,0,16.375,27.676Z" transform="translate(248 227.329)" fill="#301152"/>
  </g>
</svg>
