<svg xmlns="http://www.w3.org/2000/svg" width="80" height="83.538" viewBox="0 0 80 83.538">
  <g id="pay-per-click" transform="translate(0)">
    <circle id="Ellipse_17" data-name="Ellipse 17" cx="40" cy="40" r="40" transform="translate(0 3.237)" fill="#d6006d"/>
    <ellipse id="Ellipse_18" data-name="Ellipse 18" cx="5.63" cy="5.63" rx="5.63" ry="5.63" transform="translate(5.694 36.342)" fill="#ffd00d"/>
    <path id="Path_184" data-name="Path 184" d="M49.118,228.368a5.631,5.631,0,0,1,4.011-5.392,5.63,5.63,0,1,0,0,10.784A5.631,5.631,0,0,1,49.118,228.368Z" transform="translate(-40.186 -186.397)" fill="#ffaf10"/>
    <path id="Path_185" data-name="Path 185" d="M147.117,125.622A15.054,15.054,0,0,1,132.48,114H97.9a1.636,1.636,0,0,0-1.632,1.632v19.086a1.636,1.636,0,0,0,1.632,1.632h48.859a1.636,1.636,0,0,0,1.632-1.632v-9.155C147.974,125.6,147.548,125.622,147.117,125.622Z" transform="translate(-82.357 -95.404)" fill="#91e0e8"/>
    <path id="Path_186" data-name="Path 186" d="M99.511,134.722V115.637A1.636,1.636,0,0,1,101.142,114H97.9a1.636,1.636,0,0,0-1.632,1.632v19.086a1.636,1.636,0,0,0,1.632,1.632h3.238A1.636,1.636,0,0,1,99.511,134.722Z" transform="translate(-82.357 -95.404)" fill="#5dc1d8"/>
    <path id="Path_187" data-name="Path 187" d="M235.5,458.876V467.4c1.1.091,2.218.14,3.345.14a39.836,39.836,0,0,0,15.908-3.294v-5.374Z" transform="translate(-198.867 -384.006)" fill="#37c47a"/>
    <path id="Path_188" data-name="Path 188" d="M238.737,458.883H235.5v8.527q1.6.133,3.238.139Z" transform="translate(-198.867 -384.012)" fill="#02af8e"/>
    <path id="Path_189" data-name="Path 189" d="M201.976,236.055V215.567a2.455,2.455,0,0,0-2.447-2.447h-.979a2.453,2.453,0,0,0-2.2,1.391,2.453,2.453,0,0,0-2.2-1.391h-.979a2.453,2.453,0,0,0-2.2,1.391,2.453,2.453,0,0,0-2.2-1.391h-.979a2.445,2.445,0,0,0-1.958.988V204.58a2.455,2.455,0,0,0-2.447-2.447H182.4a2.455,2.455,0,0,0-2.447,2.447v20.062l-2.722-2.722a2.455,2.455,0,0,0-3.461,0l-1.018,1.018a2.455,2.455,0,0,0,0,3.461l9.655,9.655Z" transform="translate(-145.757 -169.153)" fill="#ffe2b8"/>
    <path id="Path_190" data-name="Path 190" d="M185.642,333.888l-9.655-9.655a2.455,2.455,0,0,1,0-3.461L177,319.753c.036-.036.074-.068.112-.1a2.453,2.453,0,0,0-3.349.1l-1.018,1.018a2.455,2.455,0,0,0,0,3.461l9.655,9.655Z" transform="translate(-145.758 -266.986)" fill="#ffc987"/>
    <g id="Group_134" data-name="Group 134" transform="translate(34.674 66.739)">
      <path id="Path_191" data-name="Path 191" d="M246.668,416.518a.818.818,0,0,1-.816.816H224.315a.818.818,0,0,1-.816-.816v-6.663a.818.818,0,0,1,.816-.816h21.537a.818.818,0,0,1,.816.816Z" transform="translate(-223.499 -409.039)" fill="#0f9390"/>
      <path id="Path_192" data-name="Path 192" d="M226.737,416.518v-6.663a.818.818,0,0,1,.816-.816h-3.238a.818.818,0,0,0-.816.816v6.663a.818.818,0,0,0,.816.816h3.238A.818.818,0,0,1,226.737,416.518Z" transform="translate(-223.499 -409.039)" fill="#0f9390"/>
    </g>
    <g id="Group_135" data-name="Group 135" transform="translate(27.577 25.861)">
      <ellipse id="Ellipse_19" data-name="Ellipse 19" cx="1.795" cy="1.795" rx="1.795" ry="1.795" transform="translate(24.229 43.231)" fill="#fff"/>
      <path id="Path_193" data-name="Path 193" d="M231.223,163.395A1.224,1.224,0,0,1,230,162.171v-2.447a1.224,1.224,0,0,1,2.447,0v2.447A1.224,1.224,0,0,1,231.223,163.395Z" transform="translate(-221.841 -158.5)" fill="#fff"/>
      <path id="Path_194" data-name="Path 194" d="M255.971,177.322a1.224,1.224,0,0,1-.865-2.089l1.731-1.731a1.224,1.224,0,0,1,1.731,1.731l-1.73,1.73A1.22,1.22,0,0,1,255.971,177.322Z" transform="translate(-242.551 -170.755)" fill="#fff"/>
      <path id="Path_195" data-name="Path 195" d="M268.671,210.947h-2.447a1.224,1.224,0,0,1,0-2.447h2.447a1.224,1.224,0,0,1,0,2.447Z" transform="translate(-251.131 -200.342)" fill="#fff"/>
      <path id="Path_196" data-name="Path 196" d="M183.67,210.947h-2.447a1.224,1.224,0,0,1,0-2.447h2.447a1.224,1.224,0,0,1,0,2.447Z" transform="translate(-179.999 -200.342)" fill="#fff"/>
      <path id="Path_197" data-name="Path 197" d="M197.6,177.322a1.22,1.22,0,0,1-.865-.358l-1.73-1.73a1.224,1.224,0,1,1,1.731-1.731l1.73,1.73a1.224,1.224,0,0,1-.865,2.089Z" transform="translate(-192.254 -170.755)" fill="#fff"/>
    </g>
    <circle id="Ellipse_20" data-name="Ellipse 20" cx="15.19" cy="15.19" r="15.19" transform="translate(49.571 0)" fill="#ef9614"/>
    <ellipse id="Ellipse_21" data-name="Ellipse 21" cx="10.796" cy="10.796" rx="10.796" ry="10.796" transform="translate(53.965 4.394)" fill="#ffd00d"/>
    <path id="Path_198" data-name="Path 198" d="M344.964,37.731a10.8,10.8,0,0,1,9.177-10.675,10.8,10.8,0,1,0,0,21.35A10.8,10.8,0,0,1,344.964,37.731Z" transform="translate(-287.762 -22.54)" fill="#ffaf10"/>
    <path id="Path_199" data-name="Path 199" d="M388.678,53.022h-3.834V51.336h4.65a1.224,1.224,0,1,0,0-2.447H387.78V47.828a1.224,1.224,0,1,0-2.447,0v1.061h-.9a2.042,2.042,0,0,0-2.039,2.039v2.5a2.042,2.042,0,0,0,2.039,2.039h3.834v1.686h-4.65a1.224,1.224,0,0,0,0,2.447h1.713v.952a1.224,1.224,0,1,0,2.447,0V59.6h.9a2.042,2.042,0,0,0,2.04-2.04v-2.5A2.042,2.042,0,0,0,388.678,53.022Z" transform="translate(-321.796 -39)" fill="#db722c"/>
    <ellipse id="Ellipse_22" data-name="Ellipse 22" cx="13.232" cy="13.232" rx="13.232" ry="13.232" transform="translate(0.003 55.628)" fill="#ef9614"/>
    <ellipse id="Ellipse_23" data-name="Ellipse 23" cx="8.915" cy="8.915" rx="8.915" ry="8.915" transform="translate(4.32 59.945)" fill="#ffd00d"/>
    <path id="Path_200" data-name="Path 200" d="M40.7,376.312a8.916,8.916,0,0,1,7.3-8.766,8.915,8.915,0,1,0,0,17.532A8.916,8.916,0,0,1,40.7,376.312Z" transform="translate(-33.143 -307.452)" fill="#ffaf10"/>
    <path id="Path_201" data-name="Path 201" d="M74.555,386.155H71.372V385h3.893a1.224,1.224,0,0,0,0-2.447H73.931v-.766a1.224,1.224,0,1,0-2.447,0v.766h-.624a1.936,1.936,0,0,0-1.934,1.934v2.179a1.936,1.936,0,0,0,1.934,1.934h3.182v1.153H70.149a1.224,1.224,0,1,0,0,2.447h1.335v.671a1.224,1.224,0,0,0,2.447,0V392.2h.624a1.936,1.936,0,0,0,1.934-1.934v-2.179A1.936,1.936,0,0,0,74.555,386.155Z" transform="translate(-59.471 -318.471)" fill="#db722c"/>
    <ellipse id="Ellipse_24" data-name="Ellipse 24" cx="5.63" cy="5.63" rx="5.63" ry="5.63" transform="translate(61.822 47.601)" fill="#ffd00d"/>
    <path id="Path_202" data-name="Path 202" d="M393.123,297.374a5.631,5.631,0,0,1,4.011-5.392,5.63,5.63,0,1,0,0,10.784A5.631,5.631,0,0,1,393.123,297.374Z" transform="translate(-328.063 -244.143)" fill="#ffaf10"/>
  </g>
</svg>
