<svg xmlns="http://www.w3.org/2000/svg" width="78.754" height="50.167" viewBox="0 0 78.754 50.167">
  <g id="cloud" transform="translate(0 -93)">
    <g id="Group_1006" data-name="Group 1006" transform="translate(0 93)">
      <path id="Path_1227" data-name="Path 1227" d="M74.819,120.173a13.784,13.784,0,0,0-9.406-3.935,24.794,24.794,0,0,0-7.254-15.861A25.152,25.152,0,0,0,40.391,93a24.716,24.716,0,0,0-14.386,4.549,25.519,25.519,0,0,0-8.73,10.82,17.237,17.237,0,0,0-12.234,5.1A17.59,17.59,0,0,0,0,125.768a17.422,17.422,0,0,0,17.4,17.4H33.875a1.85,1.85,0,0,0,1.844-1.844v-12.91a1.85,1.85,0,0,0-1.844-1.844H32.584l3.566-4.8,4.181-5.717,4.181,5.717,3.566,4.8H46.785a1.85,1.85,0,0,0-1.844,1.844v12.91a1.85,1.85,0,0,0,1.844,1.844H65.29a13.476,13.476,0,0,0,9.529-22.993Zm-2.644,16.415a9.806,9.806,0,0,1-6.947,2.889H48.568v-9.222h3.074a1.85,1.85,0,0,0,1.844-1.844,1.941,1.941,0,0,0-.43-1.168l-5.595-7.623-5.656-7.746a1.784,1.784,0,0,0-2.521-.369,1.437,1.437,0,0,0-.43.43L33.2,119.62l-5.718,7.685a1.777,1.777,0,0,0,.369,2.521,1.716,1.716,0,0,0,1.107.369H32.03v9.283H17.4a13.71,13.71,0,1,1,0-27.419h.984a1.851,1.851,0,0,0,1.906-1.353,21.407,21.407,0,0,1,41.5,7.377v.123a1.784,1.784,0,0,0,1.783,1.783h.246c.184,0,.43-.061.676-.061h.676A9.865,9.865,0,0,1,75,129.764,9.467,9.467,0,0,1,72.176,136.588Z" transform="translate(0 -93)" fill="#1c00b9"/>
    </g>
  </g>
</svg>
