<svg xmlns="http://www.w3.org/2000/svg" width="21.324" height="17.333" viewBox="0 0 21.324 17.333">
  <g id="_17-joker" data-name="17-joker" transform="translate(0 -15.934)">
    <g id="Glyph" transform="translate(0 15.934)">
      <circle id="Ellipse_1" data-name="Ellipse 1" cx="0.889" cy="0.889" r="0.889" transform="translate(19.547 10.67)" fill="#301152"/>
      <circle id="Ellipse_2" data-name="Ellipse 2" cx="0.889" cy="0.889" r="0.889" transform="translate(15.105 2.673)" fill="#301152"/>
      <circle id="Ellipse_3" data-name="Ellipse 3" cx="0.889" cy="0.889" r="0.889" transform="translate(0 10.67)" fill="#301152"/>
      <path id="Path_37" data-name="Path 37" d="M44,153.777a.444.444,0,0,0,.444.444h8.885a.444.444,0,0,0,.444-.444V152H44Z" transform="translate(-39.113 -136.888)" fill="#301152"/>
      <path id="Path_38" data-name="Path 38" d="M23.923,26.517a.444.444,0,0,0,.169-.455c-.34-1.5-1.728-4.344-4.543-4.344A4.492,4.492,0,0,0,15.9,23.288a2.356,2.356,0,0,1-.787-2.956,2.666,2.666,0,0,1,3.071-1.3.444.444,0,0,0,.538-.62,3.983,3.983,0,0,0-5.594-1.976c-2.65,1.325-3.036,4.371-3.014,6.174a3.539,3.539,0,0,0-4.094-.843c-2,1-2.023,4.151-2.023,4.285a.444.444,0,0,0,.853.174,2.238,2.238,0,0,1,1.045-1.1,1.236,1.236,0,0,1,1.013.106c1.254.627,1.531,3.774,1.531,4.934h9.774c0-.913.279-3.419,1.531-4.045,1.539-.77,3.669.421,3.69.433A.444.444,0,0,0,23.923,26.517Z" transform="translate(-3.556 -15.934)" fill="#301152"/>
    </g>
  </g>
</svg>
