<?xml version="1.0" encoding="utf-8"?>
<!-- Generator: Adobe Illustrator 18.1.1, SVG Export Plug-In . SVG Version: 6.00 Build 0)  -->
<svg version="1.1" id="Layer_1" xmlns="http://www.w3.org/2000/svg" xmlns:xlink="http://www.w3.org/1999/xlink" x="0px" y="0px"
	 viewBox="358 361.1 1510 1500.9" enable-background="new 358 361.1 1510 1500.9" xml:space="preserve">
<g>
	<g id="Icon-Pencil" transform="translate(179.000000, 382.000000)">
		<path id="Fill-168" fill="#151824" d="M192.3,1474.3l127.2-512.2l780.3-780.3l385,385l-780.3,780.3L192.3,1474.3L192.3,1474.3z
			 M408.8,1010.2l-82.5,330l330-82.5l694.4-694.4l-247.5-247.5L408.8,1010.2L408.8,1010.2z"/>
		<path id="Fill-169" fill="#151824" d="M621.9,1316.1c-34.4-134.1-137.5-237.2-271.6-271.6l24.1-96.2
			c168.4,41.3,299.1,171.9,340.3,340.3L621.9,1316.1"/>
		<polyline id="Fill-170" fill="#151824" points="611.6,1127.1 542.9,1054.9 1226.9,370.8 1295.7,439.6 611.6,1127.1 		"/>
		<path id="Fill-171" fill="#151824" d="M261,1405.5l151.2-37.8c-13.7-55-58.4-99.7-113.4-113.4L261,1405.5"/>
		<path id="Fill-172" fill="#151824" d="M1522.6,528.9l-385-385l154.7-154.7l24.1,3.4c185.6,24.1,333.4,171.9,357.5,357.5l3.4,24.1
			L1522.6,528.9L1522.6,528.9z M1278.5,143.9L1526,391.4l48.1-48.1c-27.5-123.8-123.8-220-247.5-247.5L1278.5,143.9L1278.5,143.9z"
			/>
	</g>
</g>
</svg>
