<svg xmlns="http://www.w3.org/2000/svg" width="17.821" height="17" viewBox="0 0 17.821 17">
  <g id="star" transform="translate(0 -11.796)">
    <g id="Group_2" data-name="Group 2" transform="translate(0 11.796)">
      <path id="Path_27" data-name="Path 27" d="M17.8,18.251a.522.522,0,0,0-.421-.355l-5.525-.8L9.379,12.087a.522.522,0,0,0-.936,0L5.972,17.093l-5.525.8a.522.522,0,0,0-.289.891l4,3.9-.944,5.5a.522.522,0,0,0,.758.55l4.941-2.6,4.941,2.6a.522.522,0,0,0,.758-.55l-.944-5.5,4-3.9A.522.522,0,0,0,17.8,18.251Z" transform="translate(0 -11.796)" fill="#301152"/>
    </g>
  </g>
</svg>
