<svg id="idea" xmlns="http://www.w3.org/2000/svg" width="40.35" height="40.348" viewBox="0 0 40.35 40.348">
  <g id="Group_87" data-name="Group 87" transform="translate(0 14.262)">
    <g id="Group_86" data-name="Group 86" transform="translate(0 0)">
      <path id="Path_115" data-name="Path 115" d="M3.546,0H1.182a1.182,1.182,0,1,0,0,2.364H3.546A1.182,1.182,0,1,0,3.546,0Z" transform="translate(0 0)" fill="#fff"/>
    </g>
  </g>
  <g id="Group_89" data-name="Group 89" transform="translate(0.425 6.334)">
    <g id="Group_88" data-name="Group 88">
      <path id="Path_116" data-name="Path 116" d="M3.69,2.018,2.018.346A1.182,1.182,0,0,0,.346,2.018L2.018,3.689A1.182,1.182,0,1,0,3.69,2.018Z" fill="#fff"/>
    </g>
  </g>
  <g id="Group_91" data-name="Group 91" transform="translate(0.425 20.519)">
    <g id="Group_90" data-name="Group 90">
      <path id="Path_117" data-name="Path 117" d="M3.69.346a1.182,1.182,0,0,0-1.672,0L.346,2.018A1.182,1.182,0,1,0,2.018,3.69L3.69,2.018A1.182,1.182,0,0,0,3.69.346Z" fill="#fff"/>
    </g>
  </g>
  <g id="Group_93" data-name="Group 93" transform="translate(35.621 14.262)">
    <g id="Group_92" data-name="Group 92" transform="translate(0 0)">
      <path id="Path_118" data-name="Path 118" d="M3.546,0H1.182a1.182,1.182,0,1,0,0,2.364H3.546A1.182,1.182,0,1,0,3.546,0Z" transform="translate(0 0)" fill="#fff"/>
    </g>
  </g>
  <g id="Group_95" data-name="Group 95" transform="translate(35.889 6.333)">
    <g id="Group_94" data-name="Group 94" transform="translate(0 0)">
      <path id="Path_119" data-name="Path 119" d="M3.69.346a1.182,1.182,0,0,0-1.672,0L.346,2.018A1.182,1.182,0,0,0,2.018,3.69L3.69,2.018A1.182,1.182,0,0,0,3.69.346Z" fill="#fff"/>
    </g>
  </g>
  <g id="Group_97" data-name="Group 97" transform="translate(35.889 20.519)">
    <g id="Group_96" data-name="Group 96">
      <path id="Path_120" data-name="Path 120" d="M3.69,2.018,2.018.346A1.182,1.182,0,0,0,.346,2.018L2.018,3.689A1.182,1.182,0,0,0,3.69,2.018Z" fill="#fff"/>
    </g>
  </g>
  <g id="Group_99" data-name="Group 99" transform="translate(5.99 0)">
    <g id="Group_98" data-name="Group 98" transform="translate(0)">
      <path id="Path_121" data-name="Path 121" d="M23.126,3.17a14.212,14.212,0,0,0-19.545,20.5A9.091,9.091,0,0,1,5.8,28.448H9.457V17.808c0-.458,3.466-7.212,3.671-7.621a1.231,1.231,0,0,1,2.115,0c.214.429,3.671,7.187,3.671,7.621V28.448h3.663A9.466,9.466,0,0,1,24.859,23.6a14.15,14.15,0,0,0,3.512-9.334A14.292,14.292,0,0,0,23.126,3.17Z" transform="translate(0 0)" fill="#fff"/>
    </g>
  </g>
  <g id="Group_101" data-name="Group 101" transform="translate(17.811 19.675)">
    <g id="Group_100" data-name="Group 100">
      <path id="Path_122" data-name="Path 122" d="M2.364.393A7.534,7.534,0,0,1,0,0V8.772H4.729V0A7.534,7.534,0,0,1,2.364.393Z" fill="#fff"/>
    </g>
  </g>
  <g id="Group_103" data-name="Group 103" transform="translate(11.9 30.812)">
    <g id="Group_102" data-name="Group 102">
      <path id="Path_123" data-name="Path 123" d="M0,0V1.182A3.55,3.55,0,0,0,3.546,4.728H13A3.55,3.55,0,0,0,16.55,1.182V0Z" fill="#fff"/>
    </g>
  </g>
  <g id="Group_105" data-name="Group 105" transform="translate(18.221 13.359)">
    <g id="Group_104" data-name="Group 104" transform="translate(0 0)">
      <path id="Path_124" data-name="Path 124" d="M1.954,0,0,3.907a5.113,5.113,0,0,0,3.907,0Z" transform="translate(0 0)" fill="#fff"/>
    </g>
  </g>
  <g id="Group_107" data-name="Group 107" transform="translate(14.482 37.905)">
    <g id="Group_106" data-name="Group 106">
      <path id="Path_125" data-name="Path 125" d="M0,0A3.613,3.613,0,0,0,3.329,2.443H8.057A3.613,3.613,0,0,0,11.386,0Z" fill="#fff"/>
    </g>
  </g>
</svg>
