<svg xmlns="http://www.w3.org/2000/svg" xmlns:xlink="http://www.w3.org/1999/xlink" width="1607" height="822" viewBox="0 0 1607 822">
  <defs>
    <clipPath id="clip-path">
      <rect id="Rectangle_52" data-name="Rectangle 52" width="584" height="692" fill="#fff"/>
    </clipPath>
    <clipPath id="clip-path-2">
      <rect id="Rectangle_53" data-name="Rectangle 53" width="633.474" height="692" fill="none"/>
    </clipPath>
    <linearGradient id="linear-gradient" x1="1" y1="0.5" x2="0" y2="0.5" gradientUnits="objectBoundingBox">
      <stop offset="0.03" stop-color="#1c00b8"/>
      <stop offset="0.27" stop-color="#52009f"/>
      <stop offset="0.5" stop-color="#7e008b"/>
      <stop offset="0.71" stop-color="#9e007c"/>
      <stop offset="0.88" stop-color="#b10073"/>
      <stop offset="1" stop-color="#b80070"/>
    </linearGradient>
  </defs>
  <g id="Group_8848" data-name="Group 8848" transform="translate(7 -2599)">
    <rect id="Rectangle_31" data-name="Rectangle 31" width="1600" height="770" transform="translate(0 2599)" fill="#f2f6ff"/>
    <g id="Mask_Group_6" data-name="Mask Group 6" transform="translate(-7 2729)" opacity="0.2" clip-path="url(#clip-path)">
      <g id="Layer_2" data-name="Layer 2" transform="translate(-121.737 235)">
        <g id="Layer_1" data-name="Layer 1">
          <g id="Group_79" data-name="Group 79" clip-path="url(#clip-path-2)">
            <g id="Group_78" data-name="Group 78" transform="translate(56.799 55.32)" opacity="0.8">
              <path id="Path_107" data-name="Path 107" d="M326.84,55.32c24.417,0,53.841,6.4,90.944,19.36l19.856,6.93c30.327,10.6,59.568,21.546,84.022,38.991,23.237,16.643,39.894,35.318,46.875,52.609,26.064,64.53-14.376,181.771-65.987,269.276-20.942,35.427-34.466,38.91-39.559,40.229a62.361,62.361,0,0,1-15.652,1.931c-10.587,0-22.4-2.412-36.557-7.359-11.156-3.906-22.472-8.875-34.422-14.143-12.526-5.509-25.5-11.2-38.954-15.914l-26.589-9.218-56.347-19.674-18.522-7.716c-45.177-18.792-69.317-36.615-78.287-57.775-3.374-7.964-13.648-32.178,15.761-116.33C222.817,95.2,265.29,73.245,279.251,66.046c13.786-7.126,29.278-10.726,47.589-10.726" transform="translate(-153.157 -55.32)" fill="url(#linear-gradient)"/>
            </g>
            <path id="Path_108" data-name="Path 108" d="M209.537,617.742c26.72-7.666,66.527-26.96,104.315-75.526a22.188,22.188,0,0,1,22.057-8.015c37.992,8.511,87.352,15.142,132.332-9.473,48.98-26.873,87.643-79.424,118.167-160.582C638.8,224.74,618.264,130.43,523.64,75.781a542.953,542.953,0,0,0-90.958-42C359.707,8.329,257.709-6.973,186.191,64.566c-11.943,11.943-21.9,26.727-30.473,45.177-11.863,25.5-19.084,53.717-26.079,80.99-3.264,12.744-6.339,24.774-9.8,36.185C98.949,295.85,82.263,382.327,139.185,439.76c24.366,24.607,53.017,44.251,87.592,60.034a8.642,8.642,0,0,1,4.51,4.94,8.744,8.744,0,0,1-.255,6.725,724.383,724.383,0,0,1-42.692,78.309,18.843,18.843,0,0,0,9.866,27.638h0A18.792,18.792,0,0,0,209.537,617.742ZM515.013,90.7c86.106,49.716,104.2,137.192,55.247,267.418-29.008,77.158-65.1,126.728-110.319,151.561-39.676,21.707-83.067,16.111-120.3,7.76a39.53,39.53,0,0,0-39.348,14.216c-34.976,44.878-71.212,62.606-95.454,69.55a1.326,1.326,0,0,1-1.676-.576,1.668,1.668,0,0,1-.1-1.763,737.082,737.082,0,0,0,43.676-80.152,26.079,26.079,0,0,0-12.766-34.546c-32.644-14.9-59.626-33.373-82.5-56.478-50.54-51.021-34.633-131.421-15.12-195.762,3.563-11.768,6.7-23.973,10-36.9,6.8-26.523,13.844-53.921,25.015-78.018,7.7-16.592,16.541-29.758,27.019-40.251,65.186-65.215,160.3-50.532,228.617-26.713A524.149,524.149,0,0,1,515.013,90.7Z" transform="translate(-81.432)" fill="#3d1152"/>
          </g>
        </g>
      </g>
    </g>
  </g>
</svg>
