<svg xmlns="http://www.w3.org/2000/svg" xmlns:xlink="http://www.w3.org/1999/xlink" width="169.137" height="157.5" viewBox="0 0 169.137 157.5">
  <defs>
    <filter id="Path_100" x="0" y="0" width="169.137" height="154.657" filterUnits="userSpaceOnUse">
      <feOffset dy="3" input="SourceAlpha"/>
      <feGaussianBlur stdDeviation="5" result="blur"/>
      <feFlood flood-opacity="0.161"/>
      <feComposite operator="in" in2="blur"/>
      <feComposite in="SourceGraphic"/>
    </filter>
    <filter id="Join_as_Talent" x="44.568" y="47.5" width="80" height="69" filterUnits="userSpaceOnUse">
      <feOffset dy="3" input="SourceAlpha"/>
      <feGaussianBlur stdDeviation="3" result="blur-2"/>
      <feFlood flood-opacity="0.161"/>
      <feComposite operator="in" in2="blur-2"/>
      <feComposite in="SourceGraphic"/>
    </filter>
  </defs>
  <g id="Group_159" data-name="Group 159" transform="translate(-1429.432 -736.5)">
    <g id="Group_158" data-name="Group 158" transform="translate(-2.842)">
      <g id="Group_157" data-name="Group 157" transform="translate(1449.842 751)">
        <g id="star" transform="translate(0 0)">
          <g id="Group_58" data-name="Group 58" transform="translate(0 0)">
            <g id="Group_54" data-name="Group 54" transform="translate(0 0)">
              <g transform="matrix(1, 0, 0, 1, -17.57, -14.5)" filter="url(#Path_100)">
                <path id="Path_100-2" data-name="Path 100" d="M77.01,126.3,43.067,139.717c-5.137,2.031-10.742-1.77-10.26-6.956l3.187-34.269L11.828,72.517c-3.657-3.93-1.515-10.08,3.919-11.254L51.661,53.5,70.67,24.03a7.683,7.683,0,0,1,12.682,0L102.36,53.5l35.914,7.761c5.435,1.174,7.576,7.324,3.919,11.254L118.027,98.493l3.187,34.269c.482,5.186-5.124,8.986-10.26,6.956Z" transform="translate(7.56 -6.18)" fill="#d6006d" stroke="#301152" stroke-width="5"/>
              </g>
            </g>
            <g id="Group_57" data-name="Group 57" transform="translate(53.04 45.378)">
              <g id="Group_55" data-name="Group 55" transform="translate(3.313)">
                <ellipse id="Ellipse_12" data-name="Ellipse 12" cx="10.647" cy="10.647" rx="10.647" ry="10.647" fill="#d6006d"/>
              </g>
              <g id="Group_56" data-name="Group 56" transform="translate(0 21.295)">
                <path id="Path_101" data-name="Path 101" d="M212.526,255.671H184.607v-3.352a9.843,9.843,0,0,1,9.843-9.843h8.233a9.843,9.843,0,0,1,9.843,9.843Z" transform="translate(-184.607 -242.476)" fill="#d6006d"/>
              </g>
            </g>
          </g>
          <g id="Group_64" data-name="Group 64" transform="translate(51.085 43.489)">
            <path id="Path_106" data-name="Path 106" d="M198.837,145.636a12.6,12.6,0,1,0-16.628,0,11.818,11.818,0,0,0-7.6,11.027v3.352a1.955,1.955,0,0,0,1.955,1.955h27.919a1.956,1.956,0,0,0,1.955-1.955v-3.352A11.818,11.818,0,0,0,198.837,145.636Zm-8.314-18.155a8.692,8.692,0,1,1-8.691,8.692A8.7,8.7,0,0,1,190.523,127.481Zm12,30.579H178.518v-1.4a7.9,7.9,0,0,1,7.887-7.888h8.234a7.9,7.9,0,0,1,7.887,7.888v1.4Z" transform="translate(-174.608 -123.57)" fill="#d6006d"/>
          </g>
        </g>
      </g>
      <g transform="matrix(1, 0, 0, 1, 1432.27, 736.5)" filter="url(#Join_as_Talent)">
        <text id="Join_as_Talent-2" data-name="Join as
a Star" transform="translate(84.57 75.5)" fill="#fff" font-size="20" font-family="SegoeUI-Semibold, Segoe UI" font-weight="600"><tspan x="-30.664" y="0">Join as</tspan><tspan x="-27.144" y="24">a Star</tspan></text>
      </g>
    </g>
    <ellipse id="Ellipse_36" data-name="Ellipse 36" cx="60" cy="9" rx="60" ry="9" transform="translate(1454 876)" fill="#afafaf" opacity="0.5"/>
  </g>
</svg>
