<svg xmlns="http://www.w3.org/2000/svg" width="40" height="40" viewBox="0 0 40 40">
  <path id="linkedin" d="M20,0A20,20,0,1,0,40,20,20,20,0,0,0,20,0ZM14.188,30.234H9.317V15.58h4.871ZM11.753,13.579h-.032a2.539,2.539,0,1,1,.064-5.063,2.54,2.54,0,1,1-.032,5.063Zm20,16.655h-4.87v-7.84c0-1.97-.705-3.314-2.468-3.314a2.666,2.666,0,0,0-2.5,1.781,3.336,3.336,0,0,0-.16,1.189v8.184H16.884s.064-13.279,0-14.654h4.871v2.075a4.836,4.836,0,0,1,4.39-2.419c3.2,0,5.608,2.094,5.608,6.6Zm0,0" fill="#fff" opacity="0.8"/>
</svg>
