<svg xmlns="http://www.w3.org/2000/svg" width="27.181" height="22.545" viewBox="0 0 27.181 22.545">
  <g id="megaphone_3_" data-name="megaphone (3)" transform="translate(0.5 0.515)">
    <g id="Group_161" data-name="Group 161" transform="translate(0 0)">
      <g id="Group_160" data-name="Group 160">
        <path id="Path_214" data-name="Path 214" d="M23.568,55.525A2.578,2.578,0,0,0,21.3,52.97v-6.6a.882.882,0,0,0-1.645-.443A10.568,10.568,0,0,1,13.128,50.8a13.875,13.875,0,0,1-4.072.539.51.51,0,0,0-.08,0h-4.7a4.279,4.279,0,0,0-.406,8.538L5.289,65.7a1.711,1.711,0,0,0,1.667,1.31h.983a1.715,1.715,0,0,0,1.667-2.121L8.391,59.9h.584a.509.509,0,0,0,.081,0,13.875,13.875,0,0,1,4.072.539,10.569,10.569,0,0,1,6.529,4.875.871.871,0,0,0,.757.44.905.905,0,0,0,.235-.031.873.873,0,0,0,.653-.852v-6.6a2.578,2.578,0,0,0,2.267-2.556v-.188ZM8.451,64.471l.162.664a.693.693,0,0,1-.673.856H6.956a.691.691,0,0,1-.673-.529L4.93,59.9H7.339L7.7,61.384H7.456a.511.511,0,1,0,0,1.023h.493L8.2,63.448h-.16a.511.511,0,1,0,0,1.023Zm.065-7.765H5.338a.511.511,0,1,0,0,1.023H8.516v1.147H4.265a3.256,3.256,0,0,1,.015-6.512H8.516Zm11.763-3.244V64.371a11.79,11.79,0,0,0-6.905-4.925,15.412,15.412,0,0,0-3.835-.573V52.365a15.413,15.413,0,0,0,3.835-.573,11.79,11.79,0,0,0,6.905-4.925Zm2.267,2.251A1.554,1.554,0,0,1,21.3,57.234V54a1.555,1.555,0,0,1,1.244,1.521Z" transform="translate(0 -45.484)" fill="#fff" stroke="#fff" stroke-width="1"/>
        <path id="Path_215" data-name="Path 215" d="M454.4,141.436a.509.509,0,0,0,.344-.133l1.475-1.343a.511.511,0,0,0-.689-.756l-1.475,1.343a.511.511,0,0,0,.344.889Z" transform="translate(-430.677 -134.284)" fill="#fff" stroke="#fff" stroke-width="1"/>
        <path id="Path_216" data-name="Path 216" d="M454.742,302.157a.511.511,0,0,0-.689.756l1.475,1.343a.511.511,0,0,0,.689-.756Z" transform="translate(-430.677 -288.905)" fill="#fff" stroke="#fff" stroke-width="1"/>
        <path id="Path_217" data-name="Path 217" d="M471.5,233.68h-1.132a.511.511,0,1,0,0,1.023H471.5a.511.511,0,1,0,0-1.023Z" transform="translate(-445.827 -224.057)" fill="#fff" stroke="#fff" stroke-width="1"/>
        <path id="Path_218" data-name="Path 218" d="M54.164,265.245a.507.507,0,0,0-.047-.089.515.515,0,0,0-.23-.188.541.541,0,0,0-.1-.029.507.507,0,0,0-.2,0,.517.517,0,0,0-.1.029.526.526,0,0,0-.088.047.5.5,0,0,0-.141.141.5.5,0,0,0-.047.089.516.516,0,0,0-.029.1.5.5,0,0,0-.01.1.513.513,0,0,0,.01.1.541.541,0,0,0,.029.1.517.517,0,0,0,.047.088.486.486,0,0,0,.063.078.518.518,0,0,0,.078.064.524.524,0,0,0,.088.047.512.512,0,0,0,.1.029.518.518,0,0,0,.2,0,.51.51,0,0,0,.184-.076.55.55,0,0,0,.078-.064.519.519,0,0,0,.11-.166.541.541,0,0,0,.029-.1.512.512,0,0,0,.01-.1.5.5,0,0,0-.01-.1A.516.516,0,0,0,54.164,265.245Z" transform="translate(-50.461 -253.708)" fill="#fff" stroke="#fff" stroke-width="1"/>
      </g>
    </g>
  </g>
</svg>
