<svg id="lock" xmlns="http://www.w3.org/2000/svg" width="17" height="22.667" viewBox="0 0 17 22.667">
  <path id="Path_150" data-name="Path 150" d="M14.875,206.167H2.125A2.128,2.128,0,0,1,0,204.042v-9.917A2.128,2.128,0,0,1,2.125,192h12.75A2.128,2.128,0,0,1,17,194.125v9.917A2.128,2.128,0,0,1,14.875,206.167Zm-12.75-12.75a.709.709,0,0,0-.708.708v9.917a.709.709,0,0,0,.708.708h12.75a.709.709,0,0,0,.708-.708v-9.917a.709.709,0,0,0-.708-.708Zm0,0" transform="translate(0 -183.5)" fill="#555"/>
  <path id="Path_151" data-name="Path 151" d="M74.625,9.917a.709.709,0,0,1-.708-.708V5.667a4.25,4.25,0,0,0-8.5,0V9.208a.708.708,0,0,1-1.417,0V5.667a5.667,5.667,0,0,1,11.333,0V9.208A.709.709,0,0,1,74.625,9.917Zm0,0" transform="translate(-61.167)" fill="#555"/>
</svg>
