<svg xmlns="http://www.w3.org/2000/svg" width="17" height="17" viewBox="0 0 17 17">
  <g id="Group_10" data-name="Group 10" transform="translate(-831.865 -219)">
    <g id="music" transform="translate(831.865 219)">
      <g id="Group_9" data-name="Group 9" transform="translate(0 0)">
        <path id="Path_36" data-name="Path 36" d="M16.8.159a.616.616,0,0,0-.472-.151L5.4,1.222a.607.607,0,0,0-.54.6v10.82a3.513,3.513,0,0,0-1.821-.5C1.362,12.147,0,13.236,0,14.576S1.362,17,3.036,17s3.036-1.089,3.036-2.429V5.408l9.714-1.082v7.1a3.513,3.513,0,0,0-1.821-.5c-1.674,0-3.036,1.089-3.036,2.429s1.362,2.429,3.036,2.429S17,14.7,17,13.361V.611A.607.607,0,0,0,16.8.159Z" transform="translate(0 -0.004)" fill="#301152"/>
      </g>
    </g>
  </g>
</svg>
