<svg xmlns="http://www.w3.org/2000/svg" xmlns:xlink="http://www.w3.org/1999/xlink" width="87.916" height="87.916" viewBox="0 0 87.916 87.916">
  <defs>
    <filter id="Path_40" x="23.166" y="15.927" width="47.375" height="56.062" filterUnits="userSpaceOnUse">
      <feOffset dy="3" input="SourceAlpha"/>
      <feGaussianBlur stdDeviation="5" result="blur"/>
      <feFlood flood-opacity="0.302"/>
      <feComposite operator="in" in2="blur"/>
      <feComposite in="SourceGraphic"/>
    </filter>
    <filter id="Path_41" x="0" y="0" width="87.916" height="87.916" filterUnits="userSpaceOnUse">
      <feOffset dy="3" input="SourceAlpha"/>
      <feGaussianBlur stdDeviation="5" result="blur-2"/>
      <feFlood flood-opacity="0.302"/>
      <feComposite operator="in" in2="blur-2"/>
      <feComposite in="SourceGraphic"/>
    </filter>
  </defs>
  <g id="play-arrow" transform="translate(15 12)">
    <g id="Group_20" data-name="Group 20" transform="translate(0)">
      <g id="Group_19" data-name="Group 19">
        <g transform="matrix(1, 0, 0, 1, -15, -12)" filter="url(#Path_40)">
          <path id="Path_40-2" data-name="Path 40" d="M170.667,143.4l17.375-13.031-17.375-13.031Z" transform="translate(-132.5 -89.41)" fill="#fff"/>
        </g>
        <g transform="matrix(1, 0, 0, 1, -15, -12)" filter="url(#Path_41)">
          <path id="Path_41-2" data-name="Path 41" d="M28.958,0A28.958,28.958,0,1,0,57.916,28.958,28.95,28.95,0,0,0,28.958,0Zm0,52.124A23.166,23.166,0,1,1,52.124,28.958,23.2,23.2,0,0,1,28.958,52.124Z" transform="translate(15 12)" fill="#fff"/>
        </g>
      </g>
    </g>
  </g>
</svg>
