<svg xmlns="http://www.w3.org/2000/svg" width="18.237" height="17" viewBox="0 0 18.237 17">
  <g id="television" transform="translate(0 -15.104)">
    <g id="Group_3" data-name="Group 3" transform="translate(0 15.104)">
      <path id="Path_30" data-name="Path 30" d="M16.56,18.919H10.146l3.249-3.207-.587-.587L9.433,18.437,6.058,15.1l-.587.587L8.72,18.9H1.677A1.682,1.682,0,0,0,0,20.575v9.852A1.682,1.682,0,0,0,1.677,32.1H16.56a1.682,1.682,0,0,0,1.677-1.677V20.575A1.678,1.678,0,0,0,16.56,18.919Zm-5.24,9.349a1.261,1.261,0,0,1-1.258,1.258h-6.5a1.261,1.261,0,0,1-1.258-1.258v-5.45A1.261,1.261,0,0,1,3.564,21.56h6.5a1.261,1.261,0,0,1,1.258,1.258Zm3.144.755a1.467,1.467,0,1,1,1.467-1.467A1.458,1.458,0,0,1,14.464,29.023Zm1.677-4.255H12.787v-.838h3.354Zm0-2.1H12.787v-.838h3.354Z" transform="translate(0 -15.104)" fill="#301152"/>
    </g>
  </g>
</svg>
