<svg xmlns="http://www.w3.org/2000/svg" xmlns:xlink="http://www.w3.org/1999/xlink" width="72.972" height="75.113" viewBox="0 0 72.972 75.113">
  <defs>
    <linearGradient id="linear-gradient" x1="1" y1="0.5" x2="0" y2="0.5" gradientUnits="objectBoundingBox">
      <stop offset="0.03" stop-color="#1c00b8"/>
      <stop offset="0.27" stop-color="#52009f"/>
      <stop offset="0.5" stop-color="#7e008b"/>
      <stop offset="0.71" stop-color="#9e007c"/>
      <stop offset="0.88" stop-color="#b10073"/>
      <stop offset="1" stop-color="#b80070"/>
    </linearGradient>
    <clipPath id="clip-path">
      <path id="Path_1232" data-name="Path 1232" d="M24.645,0c3.465,0,7.64.908,12.9,2.747l2.817.983c4.3,1.5,8.453,3.057,11.922,5.533,3.3,2.362,5.661,5.012,6.651,7.465,3.7,9.157-2.04,25.793-9.363,38.209-2.972,5.027-4.891,5.521-5.613,5.708a8.849,8.849,0,0,1-2.221.274,15.849,15.849,0,0,1-5.187-1.044c-1.583-.554-3.189-1.259-4.884-2.007-1.777-.782-3.619-1.589-5.527-2.258L22.371,54.3l-8-2.792-2.628-1.095c-6.41-2.667-9.836-5.2-11.109-8.2C.16,41.088-1.3,37.652,2.875,25.711,9.884,5.659,15.911,2.544,17.892,1.522A14.349,14.349,0,0,1,24.645,0" transform="translate(0 0)" fill="url(#linear-gradient)"/>
    </clipPath>
  </defs>
  <g id="Group_8865" data-name="Group 8865" transform="translate(7.972 -2594.209)">
    <g id="Group_8858" data-name="Group 8858" transform="matrix(0.999, -0.035, 0.035, 0.999, -3.638, 2601.343)" opacity="0.9">
      <path id="Path_1231" data-name="Path 1231" d="M24.645,0c3.465,0,7.64.908,12.9,2.747l2.817.983c4.3,1.5,8.453,3.057,11.922,5.533,3.3,2.362,5.661,5.012,6.651,7.465,3.7,9.157-2.04,25.793-9.363,38.209-2.972,5.027-4.891,5.521-5.613,5.708a8.849,8.849,0,0,1-2.221.274,15.849,15.849,0,0,1-5.187-1.044c-1.583-.554-3.189-1.259-4.884-2.007-1.777-.782-3.619-1.589-5.527-2.258L22.371,54.3l-8-2.792-2.628-1.095c-6.41-2.667-9.836-5.2-11.109-8.2C.16,41.088-1.3,37.652,2.875,25.711,9.884,5.659,15.911,2.544,17.892,1.522A14.349,14.349,0,0,1,24.645,0" transform="translate(0 0)" fill="url(#linear-gradient)"/>
      <g id="Mask_Group_20" data-name="Mask Group 20" transform="translate(0 0)" clip-path="url(#clip-path)">
        <g id="star_1_" data-name="star (1)" transform="translate(17.483 11.282)">
          <g id="Group_8864" data-name="Group 8864" transform="translate(2.859 4.102)">
            <path id="Path_1237" data-name="Path 1237" d="M17.287,15.744a8.992,8.992,0,1,0-11.864,0A8.432,8.432,0,0,0,0,23.612V26a1.4,1.4,0,0,0,1.4,1.4h19.92a1.4,1.4,0,0,0,1.4-1.4V23.612a8.433,8.433,0,0,0-5.423-7.868ZM2.79,24.609Z" transform="translate(0 0)" fill="#f2f6ff"/>
          </g>
        </g>
      </g>
    </g>
    <path id="Path_1231-2" data-name="Path 1231" d="M133.753,86.583c5.391,1.208,12.395,2.149,18.777-1.344,6.95-3.813,12.436-11.27,16.767-22.786,7.434-19.781,4.52-33.164-8.906-40.918a77.042,77.042,0,0,0-12.907-5.96c-10.355-3.612-24.828-5.783-34.976,4.368a21.946,21.946,0,0,0-4.324,6.41,66.3,66.3,0,0,0-3.7,11.492c-.463,1.808-.9,3.515-1.391,5.135-2.964,9.781-5.332,22.052,2.745,30.2A41.2,41.2,0,0,0,118.267,81.7C118.566,81.839,132.578,86.335,133.753,86.583Zm25.414-62.931c12.218,7.055,14.785,19.467,7.839,37.946-4.116,10.948-9.237,17.982-15.654,21.506-5.63,3.08-11.787,2.286-17.07,1.1-2.094-.448-13.143-3.865-14.994-4.721a38.772,38.772,0,0,1-11.706-8.014c-7.171-7.24-4.914-18.648-2.145-27.778.506-1.67.95-3.4,1.42-5.236a64.867,64.867,0,0,1,3.55-11.07,19.583,19.583,0,0,1,3.834-5.712c9.25-9.254,22.747-7.17,32.44-3.79A74.376,74.376,0,0,1,159.167,23.652Z" transform="translate(-108.296 2581.645)" fill="#3d1152"/>
  </g>
</svg>
