<svg xmlns="http://www.w3.org/2000/svg" width="25.373" height="31" viewBox="0 0 25.373 31">
  <g id="secure-payment" transform="translate(-32.499 0)">
    <path id="Path_1228" data-name="Path 1228" d="M136.825,131.617a1.089,1.089,0,0,0-.765-.315,1.074,1.074,0,0,0-.765.315l-3.789,3.789L130.2,134.1a1.082,1.082,0,0,0-1.53,1.532l2.074,2.074a1.074,1.074,0,0,0,.764.314h0a1.076,1.076,0,0,0,.765-.314l4.554-4.554A1.084,1.084,0,0,0,136.825,131.617Z" transform="translate(-87.553 -119.934)" fill="#301152"/>
    <path id="Path_1229" data-name="Path 1229" d="M57.82,6.388a.563.563,0,0,0-.314-.457L45.431.056a.563.563,0,0,0-.492,0L32.865,5.931a.563.563,0,0,0-.314.457,31.092,31.092,0,0,0,.972,9.554,25.607,25.607,0,0,0,3.6,8.1,21.184,21.184,0,0,0,7.808,6.9.563.563,0,0,0,.518,0,21.184,21.184,0,0,0,7.808-6.9,25.605,25.605,0,0,0,3.6-8.1A31.093,31.093,0,0,0,57.82,6.388Zm-12.635,15.4a7.158,7.158,0,1,1,7.158-7.158A7.166,7.166,0,0,1,45.185,21.792Z" fill="#301152"/>
  </g>
</svg>
