<svg xmlns="http://www.w3.org/2000/svg" width="79.949" height="83.538" viewBox="0 0 79.949 83.538">
  <g id="actor" transform="translate(0)">
    <path id="Path_138" data-name="Path 138" d="M85.678,81.82a39.975,39.975,0,1,0-69.411,0Z" transform="translate(-10.998 -18.407)" fill="#d6006d"/>
    <path id="Path_139" data-name="Path 139" d="M402.865,320.23a103.073,103.073,0,0,0-3.168-11,4.39,4.39,0,0,0-1.392-1.952,49.775,49.775,0,0,0-8.5,26.916A40.169,40.169,0,0,0,402.865,320.23Z" transform="translate(-328.003 -257.143)" fill="#fee77f"/>
    <path id="Path_140" data-name="Path 140" d="M389.81,384.9a40.179,40.179,0,0,0,7.044-5.847c-1.435-4.943-2.862-8.845-3.709-11.183A47.292,47.292,0,0,0,389.81,384.9Z" transform="translate(-328.003 -307.85)" fill="#ffdd40"/>
    <path id="Path_141" data-name="Path 141" d="M55.229,334.2a49.775,49.775,0,0,0-8.5-26.916,4.39,4.39,0,0,0-1.392,1.952,103.071,103.071,0,0,0-3.168,11A40.169,40.169,0,0,0,55.229,334.2Z" transform="translate(-37.087 -257.143)" fill="#ffc839"/>
    <path id="Path_142" data-name="Path 142" d="M45.342,309.231a103.072,103.072,0,0,0-3.168,11,40.111,40.111,0,0,0,6.135,8.245,50.909,50.909,0,0,1,2.617-8.127,5.261,5.261,0,0,1,1.442-1.918,49.438,49.438,0,0,0-5.635-11.151A4.391,4.391,0,0,0,45.342,309.231Z" transform="translate(-37.087 -257.143)" fill="#ffb332"/>
    <path id="Path_143" data-name="Path 143" d="M218.823,220.939a14.725,14.725,0,0,1-4.122,3.112,6.749,6.749,0,0,1-6.131,0,14.652,14.652,0,0,1-4.015-3,8.484,8.484,0,0,1-.8,3.265,1.083,1.083,0,0,1-.672.483h0c.027.156.058.311.092.464.528,1.077,2,2.96,6.065,5.134a.829.829,0,0,1,.443.644l.025.222h4.017l.025-.222a.829.829,0,0,1,.443-.644c3.885-2.076,5.4-3.886,5.987-4.983.049-.2.093-.407.129-.615a1.087,1.087,0,0,1-.678-.489A8.789,8.789,0,0,1,218.823,220.939Z" transform="translate(-171.742 -184.891)" fill="#fcad6d"/>
    <path id="Path_144" data-name="Path 144" d="M211.905,225.362a6.772,6.772,0,0,1-3.349-.733,14.649,14.649,0,0,1-4-2.994,8.484,8.484,0,0,1-.8,3.265,1.083,1.083,0,0,1-.672.483h0c.027.156.058.311.092.464.528,1.077,2,2.96,6.065,5.134a.829.829,0,0,1,.443.644l.025.222h.542C211.458,230.239,211.808,227.245,211.905,225.362Z" transform="translate(-171.741 -185.473)" fill="#fd995b"/>
    <path id="Path_145" data-name="Path 145" d="M217.873,282.7h-4.082a.817.817,0,0,1-.288.749l-5.5,4.643.038.153c7.531,30.221,7.231,28.59,7.68,31.865h.114l.131,0c.814-5.125-.583,1.511,7.662-31.865l.038-.153-5.5-4.643a.817.817,0,0,1-.288-.749Z" transform="translate(-175.858 -236.576)" fill="#d3dcfb"/>
    <path id="Path_146" data-name="Path 146" d="M221.584,343.569c-3.011,3.011-6.226,0-6.226,0l-.459-.15c6.415,25.708,6.166,24.395,6.592,27.5h.114l.131,0c.775-4.881-.455.9,6.546-27.354C224.037,346.652,221.584,343.569,221.584,343.569Z" transform="translate(-181.63 -287.387)" fill="#bec8f7"/>
    <g id="Group_123" data-name="Group 123" transform="translate(30.664 39.79)">
      <path id="Path_147" data-name="Path 147" d="M274.147,244.077a.315.315,0,0,0-.589-.012c-.388.988-1.694,2.958-6.081,5.3a1.074,1.074,0,0,0-.194,1.78l5.382,4.542S275.271,247.092,274.147,244.077Z" transform="translate(-255.808 -243.868)" fill="#e9efff"/>
      <path id="Path_148" data-name="Path 148" d="M205.889,249.368c-4.387-2.344-5.693-4.314-6.081-5.3a.315.315,0,0,0-.589.012c-1.124,3.015,1.482,11.612,1.482,11.612l5.382-4.542A1.074,1.074,0,0,0,205.889,249.368Z" transform="translate(-198.937 -243.869)" fill="#e9efff"/>
      <path id="Path_149" data-name="Path 149" d="M243.692,311.406c1.626,6.539,1.623,6.724,1.895,8.707h.114l.131,0c.513-3.228.148-1.791,1.869-8.627V282.7h-4.009Z" transform="translate(-236.39 -276.366)" fill="#e9efff"/>
    </g>
    <path id="Path_150" data-name="Path 150" d="M243.692,352.5v17.316c1.626,6.539,1.623,6.724,1.895,8.707h.114l.131,0c.513-3.228.148-1.791,1.869-8.627V352.5A2.081,2.081,0,0,1,243.692,352.5Z" transform="translate(-205.726 -294.983)" fill="#d3dcfb"/>
    <path id="Path_151" data-name="Path 151" d="M285.8,272.373a6.354,6.354,0,0,0-2.462-1.293h0a82.51,82.51,0,0,1-13.728-5.628l-13.243,34.5-.089.355-.349,1.442a32,32,0,0,0-.693,3.925l.124,0a39.785,39.785,0,0,0,22.015-6.606A49.82,49.82,0,0,1,285.8,272.373Z" transform="translate(-215.389 -222.14)" fill="#ffc839"/>
    <path id="Path_152" data-name="Path 152" d="M316.237,251.63l-1.02-3.244a2.165,2.165,0,0,0-1.095-1.281,49.206,49.206,0,0,1-5.21-3.045.11.11,0,0,0-.165.128,4.657,4.657,0,0,1,.252,1.533,31.268,31.268,0,0,1-.575,5.311l4.673,3.7,2.629-1.716A1.222,1.222,0,0,0,316.237,251.63Z" transform="translate(-259.896 -204.222)" fill="#ffdd40"/>
    <path id="Path_153" data-name="Path 153" d="M276.081,288.346a57.447,57.447,0,0,1-6.686-5.643l-7.765,32.044c6.858-6.655,13.127-19.705,15.122-24.1A1.851,1.851,0,0,0,276.081,288.346Z" transform="translate(-220.736 -236.577)" fill="#fcf0be"/>
    <path id="Path_154" data-name="Path 154" d="M333.475,400.981a1.248,1.248,0,0,0-2.114,0l-2.068,3.291h6.25Z" transform="translate(-277.36 -335.068)" fill="#fff5ee"/>
    <path id="Path_155" data-name="Path 155" d="M99.3,298.378l-.349-1.442L98.6,295.53,86.88,261.42a84.8,84.8,0,0,1-14.993,6.286h0A6.355,6.355,0,0,0,69.423,269a49.821,49.821,0,0,1,8.427,26.7A39.786,39.786,0,0,0,99.865,302.3l.124,0A32.056,32.056,0,0,0,99.3,298.378Z" transform="translate(-59.89 -218.767)" fill="#ffb332"/>
    <path id="Path_156" data-name="Path 156" d="M90.068,270.7l-3.187-9.279a84.793,84.793,0,0,1-14.993,6.286h0A6.355,6.355,0,0,0,69.424,269a49.725,49.725,0,0,1,5.61,11.173,5.263,5.263,0,0,1,2.113-1.158A28.193,28.193,0,0,0,88.5,272.535Z" transform="translate(-59.891 -218.767)" fill="#ff9100"/>
    <path id="Path_157" data-name="Path 157" d="M155.409,251.795l1.02-3.244a2.166,2.166,0,0,1,1.095-1.281,49.357,49.357,0,0,0,5.157-3.009.132.132,0,0,1,.2.153,4.656,4.656,0,0,0-.232,1.473,31.266,31.266,0,0,0,.575,5.311l-4.673,3.7-2.629-1.716A1.222,1.222,0,0,1,155.409,251.795Z" transform="translate(-131.802 -204.388)" fill="#ffdd40"/>
    <path id="Path_158" data-name="Path 158" d="M164.2,282.7a57.436,57.436,0,0,1-6.686,5.643,1.851,1.851,0,0,0-.671,2.3c2,4.391,8.265,17.442,15.122,24.1Z" transform="translate(-132.909 -236.576)" fill="#fcf0be"/>
    <g id="Group_124" data-name="Group 124" transform="translate(26.389 0)">
      <path id="Path_159" data-name="Path 159" d="M183.759.155c-7.477,1.019-8.187,5.258-8.19,6.813a.856.856,0,0,1-.475.771c-3.889,1.892-1.792,11.01-1.792,11.01a3.165,3.165,0,0,1,1.1.332,6.669,6.669,0,0,1,.369-1.364,5.727,5.727,0,0,1,.5-1,3.068,3.068,0,0,0,.469-1.874c-.14-1.9-.072-5.65,2.438-6.78,2.127-.957,4.736-.4,6.4.15a5.285,5.285,0,0,0,3.332,0c1.664-.553,4.273-1.108,6.4-.15,2.5,1.126,2.578,4.857,2.44,6.764a3.1,3.1,0,0,0,.468,1.89,5.751,5.751,0,0,1,.513,1.031,6.674,6.674,0,0,1,.356,1.332,2.655,2.655,0,0,1,1.4-.323c.058-1.994.242-4.143.242-4.143C201.952,3.764,191.809-.942,183.759.155Z" transform="translate(-172.738 0)" fill="#823c26"/>
    </g>
    <path id="Path_160" data-name="Path 160" d="M184.472,8.207c-.022-.04-.043-.079-.066-.119C181.282,2.822,185.693.07,185.693.07l-.047-.036a17.088,17.088,0,0,0-1.886.15C176.283,1.2,175.572,5.441,175.569,7a.856.856,0,0,1-.475.771c-3.889,1.892-1.792,11.01-1.792,11.01a3.165,3.165,0,0,1,1.1.332,6.681,6.681,0,0,1,.369-1.364,5.725,5.725,0,0,1,.5-1,3.068,3.068,0,0,0,.469-1.874c-.14-1.9-.072-5.65,2.438-6.78,2.081-.937,4.622-.426,6.289.115Z" transform="translate(-146.348 -0.028)" fill="#702f1e"/>
    <path id="Path_161" data-name="Path 161" d="M327.614,114.8a2.108,2.108,0,0,0-2.244.064,7.056,7.056,0,0,1,.021,2.075l-.592,4.311c0,.348-.011.688-.031,1.023,1.443.435,2.16-.86,2.281-1.749a6.6,6.6,0,0,1,.255-1.128C327.688,118.2,329.073,116.142,327.614,114.8Z" transform="translate(-273.573 -95.82)" fill="#fcad6d"/>
    <g id="Group_125" data-name="Group 125" transform="translate(51.195 22.811)">
      <path id="Path_162" data-name="Path 162" d="M326.294,140.368a1.809,1.809,0,0,1-1.155-.414l-.34,2.475c0,.348-.011.688-.031,1.023,1.443.435,2.16-.86,2.281-1.749a6.6,6.6,0,0,1,.255-1.128c.073-.229.183-.489.3-.769A1.81,1.81,0,0,1,326.294,140.368Z" transform="translate(-324.768 -139.805)" fill="#fd995b"/>
    </g>
    <path id="Path_163" data-name="Path 163" d="M166.183,114.8a2.108,2.108,0,0,1,2.244.064,7.049,7.049,0,0,0-.021,2.075l.592,4.311q0,.521.031,1.023c-1.443.435-2.16-.86-2.281-1.749a6.63,6.63,0,0,0-.255-1.128c-.384-1.2-1.769-3.258-.31-4.6Z" transform="translate(-140.316 -95.82)" fill="#fcad6d"/>
    <g id="Group_126" data-name="Group 126" transform="translate(25.966 22.831)">
      <path id="Path_164" data-name="Path 164" d="M172.5,139.93a1.811,1.811,0,0,1-2.358.2c.083.2.157.384.211.553a6.631,6.631,0,0,1,.255,1.128c.121.889.838,2.185,2.281,1.749q-.03-.5-.031-1.023Z" transform="translate(-170.141 -139.93)" fill="#fd995b"/>
    </g>
    <path id="Path_165" data-name="Path 165" d="M182.516,63.667a16.956,16.956,0,0,0,.1,1.821,11.891,11.891,0,0,0,11.41,8.186,11.374,11.374,0,0,0,11.124-8.184,16.9,16.9,0,0,0,.1-1.811l.592-4.311a7.007,7.007,0,0,0-.383-3.453,5.85,5.85,0,0,0-.521-1.048,3.023,3.023,0,0,1-.454-1.834c.15-2.074.026-5.721-2.494-6.855-2.117-.952-4.685-.446-6.468.147a5.218,5.218,0,0,1-3.274,0c-1.782-.593-4.351-1.1-6.467-.147-1.084.488-2.849,2.029-2.493,6.872a2.994,2.994,0,0,1-.455,1.817,5.813,5.813,0,0,0-.508,1.015,7,7,0,0,0-.4,3.485Z" transform="translate(-153.98 -38.2)" fill="#f9ba8f"/>
    <path id="Path_166" data-name="Path 166" d="M182.515,63.667a16.957,16.957,0,0,0,.1,1.821c.079.263,2.234,7.167,9.725,8.085a15.764,15.764,0,0,1-3.4-9.906l-.591-4.3a7,7,0,0,1,.4-3.485,5.809,5.809,0,0,1,.508-1.015,2.994,2.994,0,0,0,.455-1.817c-.338-4.6,1.24-6.223,2.327-6.791-1.771-.562-4.224-1-6.261-.081-1.084.488-2.849,2.029-2.493,6.872a2.994,2.994,0,0,1-.455,1.817,5.813,5.813,0,0,0-.508,1.015,7,7,0,0,0-.4,3.485Z" transform="translate(-153.979 -38.201)" fill="#fcad6d"/>
    <path id="Path_167" data-name="Path 167" d="M209.016,157.334a6.3,6.3,0,0,1-3.327,3.308,5.309,5.309,0,0,0-3.624-4.342l-2.88-.846a1.012,1.012,0,0,0-1.2.546.1.1,0,0,1-.185,0,1.012,1.012,0,0,0-1.2-.546l-2.88.846a5.332,5.332,0,0,0-3.643,4.458,6.231,6.231,0,0,1-3.593-3.423c1.023,7.248,5.169,10.674,8.184,12.21a6.762,6.762,0,0,0,6.145,0C203.821,168.014,207.992,164.589,209.016,157.334Zm-7.92,7.413a2.051,2.051,0,0,1-2.745-1.629l-.006-.05a.474.474,0,0,0-.943,0c0,.017,0,.034-.006.05a2.051,2.051,0,0,1-2.745,1.629,4.326,4.326,0,0,1-2.749-2.575,6.5,6.5,0,0,1,3.843-2.511l.514-.114a2.284,2.284,0,0,0,1.542-1.677.091.091,0,0,1,.176,0,2.284,2.284,0,0,0,1.542,1.677l.514.114a6.5,6.5,0,0,1,3.691,2.31A3.782,3.782,0,0,1,201.1,164.747Z" transform="translate(-157.846 -130.055)" fill="#823c26"/>
    <path id="Path_168" data-name="Path 168" d="M195.758,170.363v0a2.115,2.115,0,0,1-1.105-.083A4.326,4.326,0,0,1,191.9,167.7a6.5,6.5,0,0,1,2.643-2.119c-2.367-.718-1.558-3.194-1.422-3.563a5.567,5.567,0,0,0-3.052,4.268,6.231,6.231,0,0,1-3.593-3.423c1.023,7.248,5.169,10.674,8.184,12.21a6.771,6.771,0,0,0,3.381.732,4.011,4.011,0,0,1-2.285-5.441Z" transform="translate(-157.847 -135.583)" fill="#702f1e"/>
    <g id="Group_128" data-name="Group 128" transform="translate(41.342 16.953)">
      <g id="Group_127" data-name="Group 127">
        <path id="Path_169" data-name="Path 169" d="M266.071,104.46a2.438,2.438,0,0,0-1.291,3.655c1.106,1.742,3.2,4.025,5.837,4.025s3.53-2.565,3.53-4.119a4.04,4.04,0,0,0-4.354-4.119,12.1,12.1,0,0,0-3.722.558Z" transform="translate(-264.381 -103.902)" fill="#fcf0be"/>
      </g>
    </g>
    <path id="Path_170" data-name="Path 170" d="M268.319,108.115a2.438,2.438,0,0,1,1.291-3.655,11.176,11.176,0,0,1,1.594-.385,5.462,5.462,0,0,0-1.41-.173,12.1,12.1,0,0,0-3.722.558,2.438,2.438,0,0,0-1.291,3.655c1.106,1.742,3.2,4.025,5.837,4.025a3.256,3.256,0,0,0,1.624-.4A9.406,9.406,0,0,1,268.319,108.115Z" transform="translate(-223.039 -86.949)" fill="#fee77f"/>
    <g id="Group_130" data-name="Group 130" transform="translate(28.979 16.953)">
      <g id="Group_129" data-name="Group 129">
        <path id="Path_171" data-name="Path 171" d="M196.685,104.46a2.438,2.438,0,0,1,1.291,3.655c-1.106,1.742-3.2,4.025-5.837,4.025s-3.53-2.565-3.53-4.119a4.04,4.04,0,0,1,4.354-4.119,12.1,12.1,0,0,1,3.722.558Z" transform="translate(-188.609 -103.902)" fill="#fcf0be"/>
      </g>
    </g>
    <path id="Path_172" data-name="Path 172" d="M192.456,108.021a4,4,0,0,1,2.829-3.912,12.813,12.813,0,0,0-2.321-.207,4.04,4.04,0,0,0-4.354,4.119c0,1.553.894,4.119,3.53,4.119a4.951,4.951,0,0,0,2.092-.482A4.422,4.422,0,0,1,192.456,108.021Z" transform="translate(-159.63 -86.949)" fill="#fee77f"/>
    <g id="Group_132" data-name="Group 132" transform="translate(38.202 18.401)">
      <g id="Group_131" data-name="Group 131">
        <path id="Path_173" data-name="Path 173" d="M247.619,114.524a1.175,1.175,0,0,0-1.281,0l-.038.023a.777.777,0,0,1-.8-1.33,2.73,2.73,0,0,1,2.969,0,.777.777,0,0,1-.847,1.3Z" transform="translate(-245.138 -112.781)" fill="#ffb332"/>
      </g>
    </g>
    <g id="Group_133" data-name="Group 133" transform="translate(50.682 67.953)">
      <path id="Path_174" data-name="Path 174" d="M329.129,418.981h-6.25a1.251,1.251,0,1,1,0-2.5h6.25a1.251,1.251,0,1,1,0,2.5Z" transform="translate(-321.628 -416.48)" fill="#fcf0be"/>
    </g>
    <path id="Path_175" data-name="Path 175" d="M326,417.73a1.251,1.251,0,0,1,1.251-1.251h-4.376a1.251,1.251,0,0,0,0,2.5h4.376A1.25,1.25,0,0,1,326,417.73Z" transform="translate(-270.946 -348.526)" fill="#ffdd40"/>
    <path id="Path_176" data-name="Path 176" d="M214.2,266v-2.5a.8.8,0,0,1,.025-.191,11.441,11.441,0,0,0-5.29-1.9.972.972,0,0,0-1.061,1.008,16.1,16.1,0,0,0,1.272,6.038.975.975,0,0,0,1.167.526,7.451,7.451,0,0,0,3.969-2.63A.8.8,0,0,1,214.2,266Z" transform="translate(-175.748 -218.749)" fill="#ff4155"/>
    <path id="Path_177" data-name="Path 177" d="M269.944,261.4a11.463,11.463,0,0,0-5.288,1.906.8.8,0,0,1,.024.187V266a.8.8,0,0,1-.082.348,7.442,7.442,0,0,0,3.969,2.63.975.975,0,0,0,1.167-.527,16.1,16.1,0,0,0,1.272-6.038A.972.972,0,0,0,269.944,261.4Z" transform="translate(-223.221 -218.749)" fill="#ff4155"/>
    <path id="Path_178" data-name="Path 178" d="M268.739,262.548a11.538,11.538,0,0,0-4.083,1.723.808.808,0,0,1,.024.186v2.5a.8.8,0,0,1-.082.348,7.169,7.169,0,0,0,3.2,2.364C265.382,264.843,268.728,262.556,268.739,262.548Z" transform="translate(-223.221 -219.711)" fill="#e80054"/>
    <path id="Path_179" data-name="Path 179" d="M221.769,262.548a11.538,11.538,0,0,1,4.083,1.723.8.8,0,0,0-.024.186v2.5a.8.8,0,0,0,.082.348,7.169,7.169,0,0,1-3.2,2.364C225.126,264.843,221.78,262.556,221.769,262.548Z" transform="translate(-187.38 -219.711)" fill="#e80054"/>
    <path id="Path_180" data-name="Path 180" d="M248.045,269.31h-1.789a.806.806,0,0,0-.806.806v2.5a.806.806,0,0,0,.806.806h1.789a.806.806,0,0,0,.806-.806v-2.5A.806.806,0,0,0,248.045,269.31Z" transform="translate(-207.198 -225.369)" fill="#ff4155"/>
    <path id="Path_181" data-name="Path 181" d="M254.7,272.646a.729.729,0,0,0-.729.729v.305a.729.729,0,1,0,1.458,0v-.305A.729.729,0,0,0,254.7,272.646Z" transform="translate(-214.331 -228.161)" fill="#ff7186"/>
    <path id="Path_182" data-name="Path 182" d="M360.937,68.28c-2.11,1.479-5.08,4.118-5.08,7.261,0,4.876,1.149,8.245-2,14.392S367.1,96.862,372.537,102.3c2.579,2.579,3.219,5.212,3.975,7.4A40.036,40.036,0,0,0,360.937,68.28Z" transform="translate(-297.58 -57.139)" fill="#d6006d"/>
    <path id="Path_183" data-name="Path 183" d="M11,100.7a40.1,40.1,0,0,0,1.017,9c.756-2.187,1.4-4.82,3.975-7.4,5.441-5.441,21.835-6.223,18.683-12.371s-2-9.516-2-14.392c0-3.143-2.969-5.782-5.08-7.261A39.919,39.919,0,0,0,11,100.7Z" transform="translate(-10.998 -57.139)" fill="#d6006d"/>
  </g>
</svg>
