<svg xmlns="http://www.w3.org/2000/svg" xmlns:xlink="http://www.w3.org/1999/xlink" width="81.866" height="81.219" viewBox="0 0 81.866 81.219">
  <defs>
    <clipPath id="clip-path">
      <rect id="Rectangle_138" data-name="Rectangle 138" width="65.79" height="64.815" transform="translate(0)" fill="#fff"/>
    </clipPath>
    <clipPath id="clip-path-2">
      <rect id="Rectangle_137" data-name="Rectangle 137" width="74.616" height="81.51" fill="none"/>
    </clipPath>
  </defs>
  <g id="Group_8857" data-name="Group 8857" transform="translate(-1096.5 -224.171)">
    <g id="Mask_Group_17" data-name="Mask Group 17" transform="translate(1115.45 224.171) rotate(17)" clip-path="url(#clip-path)">
      <g id="Layer_2" data-name="Layer 2" transform="translate(0.62 -0.03)">
        <g id="Layer_1" data-name="Layer 1" transform="translate(0 0)">
          <g id="Group_8821" data-name="Group 8821" clip-path="url(#clip-path-2)">
            <path id="Path_1220" data-name="Path 1220" d="M27.749,61.443c4.475,1,10.289,1.783,15.587-1.116,5.769-3.165,10.323-9.355,13.919-18.915,6.171-16.421,3.752-27.529-7.393-33.966A63.954,63.954,0,0,0,39.148,2.5c-8.6-3-20.61-4.8-29.034,3.626a18.217,18.217,0,0,0-3.589,5.321,55.031,55.031,0,0,0-3.072,9.54c-.385,1.5-.747,2.918-1.154,4.262-2.461,8.119-4.426,18.305,2.279,25.07A34.2,34.2,0,0,0,14.895,57.39C15.143,57.5,26.774,61.236,27.749,61.443ZM48.846,9.2c10.142,5.856,12.273,16.16,6.507,31.5-3.417,9.088-7.668,14.927-12.994,17.852-4.673,2.557-9.784,1.9-14.17.914-1.738-.372-10.91-3.209-12.447-3.919A32.184,32.184,0,0,1,6.024,48.9c-5.953-6.01-4.079-15.48-1.781-23.058.42-1.386.789-2.824,1.178-4.346A53.846,53.846,0,0,1,8.368,12.3a16.256,16.256,0,0,1,3.183-4.741C19.229-.12,30.433,1.61,38.479,4.415A61.739,61.739,0,0,1,48.846,9.2Z" transform="translate(2.225 1.48)" fill="#301152"/>
          </g>
        </g>
      </g>
    </g>
    <g id="star" transform="translate(1123.677 250)">
      <g id="Group_58" data-name="Group 58" transform="translate(0 0)">
        <g id="Group_54" data-name="Group 54" transform="translate(0 0)">
          <path id="Path_100" data-name="Path 100" d="M24.511,45.184,17.165,48.3a1.6,1.6,0,0,1-2.22-1.614l.69-7.949L10.4,32.708a1.6,1.6,0,0,1,.848-2.611l7.772-1.8,4.114-6.837a1.6,1.6,0,0,1,2.745,0L30,28.3l7.772,1.8a1.6,1.6,0,0,1,.848,2.611l-5.23,6.026.69,7.949a1.6,1.6,0,0,1-2.22,1.614Z" transform="translate(-10.011 -20.685)" fill="none" stroke="#301152" stroke-width="3"/>
        </g>
        <g id="Group_57" data-name="Group 57" transform="translate(10.292 9.248)">
          <g id="Group_55" data-name="Group 55" transform="translate(0.999)">
            <ellipse id="Ellipse_12" data-name="Ellipse 12" cx="3.21" cy="3.21" rx="3.21" ry="3.21" fill="#301152"/>
          </g>
          <g id="Group_56" data-name="Group 56" transform="translate(0 6.42)">
            <path id="Path_101" data-name="Path 101" d="M193.024,246.454h-8.417v-1.011a2.967,2.967,0,0,1,2.967-2.967h2.482a2.967,2.967,0,0,1,2.967,2.967Z" transform="translate(-184.607 -242.476)" fill="#301152"/>
          </g>
        </g>
      </g>
    </g>
  </g>
</svg>
