<svg xmlns="http://www.w3.org/2000/svg" width="18.355" height="22" viewBox="0 0 18.355 22">
  <g id="user" transform="translate(0 0)">
    <path id="Path_148" data-name="Path 148" d="M92.331,10.6a5.127,5.127,0,0,0,3.747-1.552A5.128,5.128,0,0,0,97.63,5.3a5.128,5.128,0,0,0-1.552-3.747,5.3,5.3,0,0,0-7.493,0A5.127,5.127,0,0,0,87.032,5.3a5.127,5.127,0,0,0,1.552,3.747A5.129,5.129,0,0,0,92.331,10.6ZM89.5,2.464a4.008,4.008,0,0,1,5.67,0A3.831,3.831,0,0,1,96.34,5.3a3.831,3.831,0,0,1-1.175,2.835,4.008,4.008,0,0,1-5.67,0A3.83,3.83,0,0,1,88.321,5.3,3.83,3.83,0,0,1,89.5,2.464Zm0,0" transform="translate(-83.292 0)" fill="#555"/>
    <path id="Path_149" data-name="Path 149" d="M18.31,253.606a13.087,13.087,0,0,0-.178-1.39,10.951,10.951,0,0,0-.342-1.4,6.9,6.9,0,0,0-.575-1.3,4.914,4.914,0,0,0-.866-1.129A3.82,3.82,0,0,0,15.1,247.6a4.3,4.3,0,0,0-1.589-.288,1.613,1.613,0,0,0-.861.365c-.258.168-.56.363-.9.578a5.141,5.141,0,0,1-1.161.511,4.508,4.508,0,0,1-2.84,0,5.126,5.126,0,0,1-1.16-.511c-.334-.213-.636-.408-.9-.579a1.611,1.611,0,0,0-.861-.365,4.3,4.3,0,0,0-1.589.288A3.817,3.817,0,0,0,2,248.386a4.914,4.914,0,0,0-.866,1.129,6.916,6.916,0,0,0-.575,1.3,10.979,10.979,0,0,0-.342,1.4,13,13,0,0,0-.178,1.391c-.029.42-.044.857-.044,1.3a3.653,3.653,0,0,0,1.085,2.764,3.905,3.905,0,0,0,2.8,1.02H14.474a3.906,3.906,0,0,0,2.8-1.02,3.652,3.652,0,0,0,1.085-2.764c0-.443-.015-.881-.044-1.3Zm-1.93,3.129a2.63,2.63,0,0,1-1.907.665H3.881a2.63,2.63,0,0,1-1.907-.664,2.386,2.386,0,0,1-.685-1.83c0-.412.014-.819.041-1.21a11.726,11.726,0,0,1,.161-1.252,9.684,9.684,0,0,1,.3-1.232,5.632,5.632,0,0,1,.468-1.06,3.643,3.643,0,0,1,.637-.834,2.535,2.535,0,0,1,.828-.515,2.968,2.968,0,0,1,1.015-.2c.045.024.126.07.256.155.265.173.571.37.908.585A6.387,6.387,0,0,0,7.36,250a5.8,5.8,0,0,0,3.633,0,6.4,6.4,0,0,0,1.458-.652c.346-.221.643-.412.908-.585.13-.085.211-.131.256-.155a2.97,2.97,0,0,1,1.016.2,2.538,2.538,0,0,1,.828.515,3.633,3.633,0,0,1,.637.835,5.611,5.611,0,0,1,.468,1.06,9.658,9.658,0,0,1,.3,1.232,11.824,11.824,0,0,1,.161,1.252h0c.027.389.041.8.041,1.21a2.385,2.385,0,0,1-.685,1.83Zm0,0" transform="translate(0 -236.689)" fill="#555"/>
  </g>
</svg>
