<svg xmlns="http://www.w3.org/2000/svg" width="41.585" height="42.349" viewBox="0 0 41.585 42.349">
  <g id="chat_7_" data-name="chat (7)" transform="translate(-3.366)">
    <g id="Group_8794" data-name="Group 8794" transform="translate(3.366)">
      <g id="Group_8793" data-name="Group 8793" transform="translate(0)">
        <path id="Path_1211" data-name="Path 1211" d="M24.255,0c-.011.011-.034.011-.068.011A20.775,20.775,0,0,0,7.893,33.733l-3.03,7.035a1.129,1.129,0,0,0,.59,1.486,1.153,1.153,0,0,0,.647.079l11.108-1.952a20.018,20.018,0,0,0,6.921,1.2A20.792,20.792,0,0,0,24.255,0Zm-.113,39.327a18.213,18.213,0,0,1-6.411-1.169,1.088,1.088,0,0,0-.6-.057L7.78,39.735l2.474-5.753a1.141,1.141,0,0,0-.182-1.191,18.14,18.14,0,0,1-3.154-5.242A18.525,18.525,0,1,1,42.693,20.7v.068A18.575,18.575,0,0,1,24.141,39.327Z" transform="translate(-3.366)" fill="#555555"/>
      </g>
    </g>
    <g id="Group_8796" data-name="Group 8796" transform="translate(15.995 16.645)">
      <g id="Group_8795" data-name="Group 8795">
        <path id="Path_1212" data-name="Path 1212" d="M121.928,146.7H115.8a1.135,1.135,0,1,0,0,2.269h6.127a1.135,1.135,0,1,0,0-2.269Z" transform="translate(-114.666 -146.7)" fill="#555555"/>
      </g>
    </g>
    <g id="Group_8798" data-name="Group 8798" transform="translate(15.995 22.318)">
      <g id="Group_8797" data-name="Group 8797">
        <path id="Path_1213" data-name="Path 1213" d="M129.87,196.7H115.8a1.135,1.135,0,1,0,0,2.269h14.07a1.135,1.135,0,0,0,0-2.269Z" transform="translate(-114.666 -196.7)" fill="#555555"/>
      </g>
    </g>
  </g>
</svg>
