<svg xmlns="http://www.w3.org/2000/svg" xmlns:xlink="http://www.w3.org/1999/xlink" width="150.204" height="149.016" viewBox="0 0 150.204 149.016">
  <defs>
    <clipPath id="clip-path">
      <rect id="Rectangle_117" data-name="Rectangle 117" width="120.71" height="118.92" transform="translate(0 124)" fill="#fff"/>
    </clipPath>
    <clipPath id="clip-path-2">
      <rect id="Rectangle_116" data-name="Rectangle 116" width="136.903" height="149.55" fill="none"/>
    </clipPath>
  </defs>
  <g id="Group_8850" data-name="Group 8850" transform="translate(-725.279 -1036.466)">
    <g id="star" transform="translate(778 1073)" opacity="0.4">
      <g id="Group_58" data-name="Group 58" transform="translate(0 0)">
        <g id="Group_54" data-name="Group 54" transform="translate(0 0)">
          <path id="Path_100" data-name="Path 100" d="M31.623,57.2,20.674,61.841a2.387,2.387,0,0,1-3.31-2.4l1.028-11.849-7.8-8.981a2.388,2.388,0,0,1,1.264-3.891l11.585-2.683,6.132-10.19a2.387,2.387,0,0,1,4.091,0L39.8,32.032l11.585,2.683a2.388,2.388,0,0,1,1.264,3.891l-7.8,8.981,1.028,11.849a2.387,2.387,0,0,1-3.31,2.4Z" transform="translate(-10.011 -20.685)" fill="none" stroke="#787878" stroke-width="3"/>
        </g>
        <g id="Group_57" data-name="Group 57" transform="translate(15.34 13.785)">
          <g id="Group_55" data-name="Group 55" transform="translate(1.489)">
            <ellipse id="Ellipse_12" data-name="Ellipse 12" cx="4.784" cy="4.784" rx="4.784" ry="4.784" fill="#787878"/>
          </g>
          <g id="Group_56" data-name="Group 56" transform="translate(0 9.568)">
            <path id="Path_101" data-name="Path 101" d="M197.152,248.405H184.607V246.9a4.423,4.423,0,0,1,4.423-4.423h3.7a4.423,4.423,0,0,1,4.423,4.423Z" transform="translate(-184.607 -242.476)" fill="#787878"/>
          </g>
        </g>
      </g>
    </g>
    <g id="Mask_Group_15" data-name="Mask Group 15" transform="translate(796.302 917.884) rotate(17)" opacity="0.2" clip-path="url(#clip-path)">
      <g id="Layer_2" data-name="Layer 2" transform="translate(1.137 123.946)">
        <g id="Layer_1" data-name="Layer 1" transform="translate(0 0)">
          <g id="Group_8806" data-name="Group 8806" clip-path="url(#clip-path-2)">
            <path id="Path_1218" data-name="Path 1218" d="M151.237,125.3c8.211,1.839,18.878,3.272,28.6-2.047,10.585-5.808,18.941-17.164,25.538-34.7,11.322-30.128,6.885-50.509-13.565-62.32a117.34,117.34,0,0,0-19.658-9.077c-15.771-5.5-37.814-8.807-53.27,6.653a33.424,33.424,0,0,0-6.586,9.763c-2.564,5.512-4.124,11.609-5.636,17.5-.705,2.754-1.37,5.354-2.118,7.82-4.515,14.9-8.121,33.586,4.181,46a62.741,62.741,0,0,0,18.93,12.974C128.107,118.072,149.448,124.918,151.237,125.3Zm38.707-95.845C208.553,40.2,212.463,59.1,201.884,87.244c-6.269,16.675-14.069,27.388-23.842,32.754-8.574,4.691-17.952,3.482-26,1.677-3.189-.683-20.017-5.887-22.837-7.19a59.051,59.051,0,0,1-17.829-12.206c-10.922-11.026-7.485-28.4-3.268-42.306.77-2.543,1.447-5.181,2.162-7.974,1.469-5.732,2.992-11.653,5.406-16.861a29.825,29.825,0,0,1,5.839-8.7c14.088-14.094,34.644-10.921,49.408-5.773A113.278,113.278,0,0,1,189.944,29.451Z" transform="translate(-96.241 -9.849)" fill="#232323"/>
          </g>
        </g>
      </g>
    </g>
  </g>
</svg>
