<svg xmlns="http://www.w3.org/2000/svg" width="46.276" height="44.38" viewBox="0 0 46.276 44.38">
  <g id="star" transform="translate(1.526 1.5)">
    <g id="Group_58" data-name="Group 58" transform="translate(0 0)">
      <g id="Group_54" data-name="Group 54" transform="translate(0 0)">
        <path id="Path_100" data-name="Path 100" d="M31.623,57.2,20.674,61.841a2.387,2.387,0,0,1-3.31-2.4l1.028-11.849-7.8-8.981a2.388,2.388,0,0,1,1.264-3.891l11.585-2.683,6.132-10.19a2.387,2.387,0,0,1,4.091,0L39.8,32.032l11.585,2.683a2.388,2.388,0,0,1,1.264,3.891l-7.8,8.981,1.028,11.849a2.387,2.387,0,0,1-3.31,2.4Z" transform="translate(-10.011 -20.685)" fill="none" stroke="#ffffff" stroke-width="3"/>
      </g>
      <g id="Group_57" data-name="Group 57" transform="translate(15.34 13.785)">
        <g id="Group_55" data-name="Group 55" transform="translate(1.489)">
          <ellipse id="Ellipse_12" data-name="Ellipse 12" cx="4.784" cy="4.784" rx="4.784" ry="4.784" fill="#ffffff"/>
        </g>
        <g id="Group_56" data-name="Group 56" transform="translate(0 9.568)">
          <path id="Path_101" data-name="Path 101" d="M197.152,248.405H184.607V246.9a4.423,4.423,0,0,1,4.423-4.423h3.7a4.423,4.423,0,0,1,4.423,4.423Z" transform="translate(-184.607 -242.476)" fill="#ffffff"/>
        </g>
      </g>
    </g>
  </g>
</svg>