<svg xmlns="http://www.w3.org/2000/svg" width="62" height="62" viewBox="0 0 62 62">
  <g id="Group_8848" data-name="Group 8848" transform="translate(-1276 -422)">
    <circle id="Ellipse_37" data-name="Ellipse 37" cx="31" cy="31" r="31" transform="translate(1276 422)" fill="#d6006d"/>
    <g id="hourglass" transform="translate(1295.853 437.5)">
      <g id="Group_198" data-name="Group 198" transform="translate(0)">
        <path id="Path_222" data-name="Path 222" d="M77.69,12.279A13.3,13.3,0,0,0,82.778,1.816h1.835V0H61V1.816h1.835a13.3,13.3,0,0,0,5.088,10.463c1.379,1.257,2.159,2.026,2.159,3.221s-.78,1.964-2.159,3.221a13.3,13.3,0,0,0-5.088,10.463H61V31H84.613V29.184H82.778A13.3,13.3,0,0,0,77.69,18.721c-1.379-1.257-2.159-2.026-2.159-3.221S76.311,13.536,77.69,12.279ZM71.9,22.308a4.592,4.592,0,0,0-.828.254l-5.563,2.3a12.392,12.392,0,0,1,3.64-4.8c1.415-1.29,2.751-2.509,2.751-4.563Zm4.568-2.245a12.393,12.393,0,0,1,3.64,4.8l-5.563-2.3a4.592,4.592,0,0,0-.828-.254V15.5C73.715,17.555,75.051,18.773,76.466,20.063ZM65.476,6.055a13.457,13.457,0,0,1-.822-4.238H80.959a13.456,13.456,0,0,1-.822,4.238Z" transform="translate(-61)" fill="#fff"/>
      </g>
    </g>
  </g>
</svg>
