<svg xmlns="http://www.w3.org/2000/svg" xmlns:xlink="http://www.w3.org/1999/xlink" width="150.205" height="149.018" viewBox="0 0 150.205 149.018">
  <defs>
    <clipPath id="clip-path">
      <rect id="Rectangle_115" data-name="Rectangle 115" width="120.71" height="118.922" transform="translate(0 124)" fill="#fff"/>
    </clipPath>
    <clipPath id="clip-path-2">
      <rect id="Rectangle_114" data-name="Rectangle 114" width="136.904" height="149.552" fill="none"/>
    </clipPath>
  </defs>
  <g id="Group_8848" data-name="Group 8848" transform="translate(-257.623 -1036.171)" opacity="0.3">
    <g id="Mask_Group_14" data-name="Mask Group 14" transform="translate(328.646 917.589) rotate(17)" clip-path="url(#clip-path)">
      <g id="Layer_2" data-name="Layer 2" transform="translate(1.137 123.946)">
        <g id="Layer_1" data-name="Layer 1" transform="translate(0 0)">
          <g id="Group_8804" data-name="Group 8804" clip-path="url(#clip-path-2)">
            <path id="Path_1217" data-name="Path 1217" d="M151.237,125.3c8.211,1.839,18.878,3.272,28.6-2.047,10.585-5.808,18.941-17.165,25.538-34.7,11.322-30.128,6.885-50.51-13.565-62.321a117.341,117.341,0,0,0-19.658-9.077c-15.771-5.5-37.814-8.808-53.271,6.653a33.425,33.425,0,0,0-6.586,9.763c-2.564,5.512-4.124,11.609-5.636,17.5-.705,2.754-1.37,5.354-2.118,7.82-4.515,14.9-8.121,33.586,4.181,46a62.742,62.742,0,0,0,18.93,12.974C128.108,118.074,149.448,124.92,151.237,125.3Zm38.707-95.847C208.554,40.2,212.464,59.1,201.885,87.245c-6.269,16.675-14.069,27.388-23.842,32.755-8.575,4.691-17.952,3.482-26,1.677-3.189-.683-20.017-5.887-22.837-7.19a59.051,59.051,0,0,1-17.829-12.206c-10.922-11.026-7.485-28.4-3.268-42.307.77-2.543,1.447-5.181,2.162-7.975,1.469-5.732,2.992-11.653,5.406-16.861a29.826,29.826,0,0,1,5.839-8.7c14.088-14.094,34.644-10.921,49.408-5.773A113.277,113.277,0,0,1,189.945,29.452Z" transform="translate(-96.241 -9.849)" fill="#232323"/>
          </g>
        </g>
      </g>
    </g>
    <g id="Group_8805" data-name="Group 8805" transform="translate(-135.642 -316)">
      <g id="megaphone_3_" data-name="megaphone (3)" transform="translate(444.541 1389)">
        <g id="Group_161" data-name="Group 161" transform="translate(0 0)">
          <g id="Group_160" data-name="Group 160">
            <path id="Path_214" data-name="Path 214" d="M45.264,64.768A4.951,4.951,0,0,0,40.91,59.86V47.181a1.694,1.694,0,0,0-3.158-.851,20.3,20.3,0,0,1-12.539,9.362,26.648,26.648,0,0,1-7.82,1.035.981.981,0,0,0-.154,0H8.218a8.218,8.218,0,0,0-.781,16.4l2.721,11.188a3.286,3.286,0,0,0,3.2,2.516h1.888a3.294,3.294,0,0,0,3.2-4.073l-2.333-9.593h1.121a.977.977,0,0,0,.155,0,26.648,26.648,0,0,1,7.821,1.035,20.3,20.3,0,0,1,12.539,9.362,1.673,1.673,0,0,0,1.453.845,1.739,1.739,0,0,0,.452-.06,1.676,1.676,0,0,0,1.253-1.636V70.038a4.951,4.951,0,0,0,4.353-4.908v-.361ZM16.23,81.949l.31,1.276a1.33,1.33,0,0,1-1.293,1.645H13.36a1.327,1.327,0,0,1-1.293-1.016l-2.6-10.686h4.627l.694,2.852h-.469a.982.982,0,1,0,0,1.964h.947l.487,2h-.308a.982.982,0,1,0,0,1.964Zm.125-14.913h-6.1a.982.982,0,1,0,0,1.964h6.1v2.2H14.92l-.054,0H8.218l-.028,0a6.254,6.254,0,0,1,.028-12.508h8.137Zm22.591-6.23V81.758A22.643,22.643,0,0,0,25.684,72.3a29.6,29.6,0,0,0-7.365-1.1V58.7a29.6,29.6,0,0,0,7.365-1.1A22.644,22.644,0,0,0,38.946,48.14ZM43.3,65.129a2.985,2.985,0,0,1-2.389,2.922v-6.2A2.986,2.986,0,0,1,43.3,64.768Z" transform="translate(0 -45.484)" fill="#232323" stroke="#232323" stroke-width="0.5"/>
            <path id="Path_215" data-name="Path 215" d="M454.869,143.614a.978.978,0,0,0,.661-.256l2.833-2.58a.982.982,0,0,0-1.323-1.452l-2.833,2.58a.982.982,0,0,0,.661,1.708Z" transform="translate(-409.311 -129.879)" fill="#232323" stroke="#232323" stroke-width="0.5"/>
            <path id="Path_216" data-name="Path 216" d="M455.53,302.28a.982.982,0,0,0-1.323,1.452l2.833,2.58a.982.982,0,0,0,1.323-1.452Z" transform="translate(-409.311 -276.829)" fill="#232323" stroke="#232323" stroke-width="0.5"/>
            <path id="Path_217" data-name="Path 217" d="M473.01,233.68h-2.175a.982.982,0,0,0,0,1.964h2.175a.982.982,0,0,0,0-1.964Z" transform="translate(-423.709 -215.198)" fill="#232323" stroke="#232323" stroke-width="0.5"/>
            <path id="Path_218" data-name="Path 218" d="M55.07,265.535a.973.973,0,0,0-.09-.17.988.988,0,0,0-.441-.361,1.04,1.04,0,0,0-.184-.056.974.974,0,0,0-.384,0,.992.992,0,0,0-.184.056,1.009,1.009,0,0,0-.17.09.956.956,0,0,0-.271.271.969.969,0,0,0-.09.17.992.992,0,0,0-.056.184.969.969,0,0,0-.02.192.985.985,0,0,0,.02.192,1.038,1.038,0,0,0,.056.184.993.993,0,0,0,.09.169.933.933,0,0,0,.122.149,1,1,0,0,0,.149.123,1,1,0,0,0,.17.09.981.981,0,0,0,.184.056.995.995,0,0,0,.384,0,.98.98,0,0,0,.353-.146,1.056,1.056,0,0,0,.15-.123,1,1,0,0,0,.212-.318,1.038,1.038,0,0,0,.056-.184.983.983,0,0,0,.019-.192.967.967,0,0,0-.019-.192A.992.992,0,0,0,55.07,265.535Z" transform="translate(-47.957 -243.378)" fill="#232323" stroke="#232323" stroke-width="0.5"/>
          </g>
        </g>
      </g>
    </g>
  </g>
</svg>
