<svg xmlns="http://www.w3.org/2000/svg" xmlns:xlink="http://www.w3.org/1999/xlink" width="81.866" height="81.219" viewBox="0 0 81.866 81.219">
  <defs>
    <clipPath id="clip-path">
      <rect id="Rectangle_138" data-name="Rectangle 138" width="65.79" height="64.815" transform="translate(0)" fill="#fff"/>
    </clipPath>
    <clipPath id="clip-path-2">
      <rect id="Rectangle_137" data-name="Rectangle 137" width="74.616" height="81.51" fill="none"/>
    </clipPath>
  </defs>
  <g id="Group_8856" data-name="Group 8856" transform="translate(-1096.5 -224.171)">
    <g id="Mask_Group_17" data-name="Mask Group 17" transform="translate(1115.45 224.171) rotate(17)" clip-path="url(#clip-path)">
      <g id="Layer_2" data-name="Layer 2" transform="translate(0.62 -0.03)">
        <g id="Layer_1" data-name="Layer 1" transform="translate(0 0)">
          <g id="Group_8821" data-name="Group 8821" clip-path="url(#clip-path-2)">
            <path id="Path_1220" data-name="Path 1220" d="M27.749,61.443c4.475,1,10.289,1.783,15.587-1.116,5.769-3.165,10.323-9.355,13.919-18.915,6.171-16.421,3.752-27.529-7.393-33.966A63.954,63.954,0,0,0,39.148,2.5c-8.6-3-20.61-4.8-29.034,3.626a18.217,18.217,0,0,0-3.589,5.321,55.031,55.031,0,0,0-3.072,9.54c-.385,1.5-.747,2.918-1.154,4.262-2.461,8.119-4.426,18.305,2.279,25.07A34.2,34.2,0,0,0,14.895,57.39C15.143,57.5,26.774,61.236,27.749,61.443ZM48.846,9.2c10.142,5.856,12.273,16.16,6.507,31.5-3.417,9.088-7.668,14.927-12.994,17.852-4.673,2.557-9.784,1.9-14.17.914-1.738-.372-10.91-3.209-12.447-3.919A32.184,32.184,0,0,1,6.024,48.9c-5.953-6.01-4.079-15.48-1.781-23.058.42-1.386.789-2.824,1.178-4.346A53.846,53.846,0,0,1,8.368,12.3a16.256,16.256,0,0,1,3.183-4.741C19.229-.12,30.433,1.61,38.479,4.415A61.739,61.739,0,0,1,48.846,9.2Z" transform="translate(2.225 1.48)" fill="#d6006d"/>
          </g>
        </g>
      </g>
    </g>
    <g id="Group_8822" data-name="Group 8822" transform="translate(1122.167 252.446)">
      <g id="megaphone_3_" data-name="megaphone (3)" transform="translate(0 0)">
        <g id="Group_161" data-name="Group 161" transform="translate(0 0)">
          <g id="Group_160" data-name="Group 160">
            <path id="Path_214" data-name="Path 214" d="M27.927,57.382a3.055,3.055,0,0,0-2.686-3.028V46.531a1.045,1.045,0,0,0-1.949-.525,12.523,12.523,0,0,1-7.736,5.776,16.441,16.441,0,0,1-4.825.639.605.605,0,0,0-.095,0H5.071a5.07,5.07,0,0,0-.482,10.117l1.679,6.9A2.027,2.027,0,0,0,8.243,71H9.408a2.033,2.033,0,0,0,1.975-2.513L9.943,62.564h.692a.6.6,0,0,0,.1,0,16.441,16.441,0,0,1,4.826.639,12.523,12.523,0,0,1,7.736,5.776,1.032,1.032,0,0,0,.9.521,1.073,1.073,0,0,0,.279-.037,1.034,1.034,0,0,0,.773-1.009V60.633A3.055,3.055,0,0,0,27.927,57.6v-.223Zm-17.913,10.6.191.787a.821.821,0,0,1-.8,1.015H8.243a.819.819,0,0,1-.8-.627l-1.6-6.593H8.7l.428,1.76h-.29a.606.606,0,1,0,0,1.212h.584l.3,1.234h-.19a.606.606,0,1,0,0,1.212Zm.077-9.2H6.325a.606.606,0,1,0,0,1.212h3.766v1.359H5.053a3.858,3.858,0,0,1,.017-7.717h5.02Zm13.938-3.844V67.864a13.97,13.97,0,0,0-8.182-5.836A18.263,18.263,0,0,0,11.3,61.35V53.637a18.264,18.264,0,0,0,4.544-.679,13.971,13.971,0,0,0,8.182-5.836ZM26.715,57.6a1.842,1.842,0,0,1-1.474,1.8V55.58a1.842,1.842,0,0,1,1.474,1.8Z" transform="translate(0 -45.484)" fill="#d6006d" stroke="#d6006d" stroke-width="0.5"/>
            <path id="Path_215" data-name="Path 215" d="M454.492,141.873a.6.6,0,0,0,.408-.158l1.748-1.592a.606.606,0,0,0-.816-.9l-1.748,1.592a.606.606,0,0,0,.408,1.054Z" transform="translate(-426.384 -133.399)" fill="#d6006d" stroke="#d6006d" stroke-width="0.5"/>
            <path id="Path_216" data-name="Path 216" d="M454.9,302.182a.606.606,0,0,0-.816.9l1.748,1.592a.606.606,0,0,0,.816-.9Z" transform="translate(-426.384 -286.479)" fill="#d6006d" stroke="#d6006d" stroke-width="0.5"/>
            <path id="Path_217" data-name="Path 217" d="M471.8,233.68h-1.342a.606.606,0,1,0,0,1.212H471.8a.606.606,0,0,0,0-1.212Z" transform="translate(-441.383 -222.277)" fill="#d6006d" stroke="#d6006d" stroke-width="0.5"/>
            <path id="Path_218" data-name="Path 218" d="M54.346,265.3a.6.6,0,0,0-.056-.1.61.61,0,0,0-.272-.223.644.644,0,0,0-.113-.035.6.6,0,0,0-.237,0,.615.615,0,0,0-.113.035.623.623,0,0,0-.1.056.59.59,0,0,0-.167.167.6.6,0,0,0-.056.1.612.612,0,0,0-.035.113.6.6,0,0,0-.012.118.608.608,0,0,0,.012.119.641.641,0,0,0,.035.113.612.612,0,0,0,.056.1.574.574,0,0,0,.075.092.614.614,0,0,0,.092.076.621.621,0,0,0,.1.056.6.6,0,0,0,.113.034.614.614,0,0,0,.237,0,.6.6,0,0,0,.218-.09.652.652,0,0,0,.093-.076.615.615,0,0,0,.131-.2.64.64,0,0,0,.035-.113.606.606,0,0,0,.012-.119.6.6,0,0,0-.012-.118A.612.612,0,0,0,54.346,265.3Z" transform="translate(-49.958 -251.632)" fill="#d6006d" stroke="#d6006d" stroke-width="0.5"/>
          </g>
        </g>
      </g>
    </g>
  </g>
</svg>
