<svg xmlns="http://www.w3.org/2000/svg" width="24.741" height="24.741" viewBox="0 0 24.741 24.741">
  <path id="share_2_" data-name="share (2)" d="M19.439,14.138a5.284,5.284,0,0,0-4.265,2.182L10.35,13.906A5.23,5.23,0,0,0,10.6,12.37a5.23,5.23,0,0,0-.254-1.536l4.825-2.413A5.28,5.28,0,1,0,14.138,5.3a5.229,5.229,0,0,0,.254,1.536L9.566,9.25a5.3,5.3,0,1,0,0,6.24L14.391,17.9a5.229,5.229,0,0,0-.254,1.536,5.3,5.3,0,1,0,5.3-5.3Zm0-12.37A3.534,3.534,0,1,1,15.9,5.3,3.538,3.538,0,0,1,19.439,1.767ZM5.3,15.9a3.534,3.534,0,1,1,3.534-3.534A3.538,3.538,0,0,1,5.3,15.9Zm14.138,7.069a3.534,3.534,0,1,1,3.534-3.534A3.538,3.538,0,0,1,19.439,22.974Z" transform="translate(0)" fill="#d6006d"/>
</svg>
