<svg xmlns="http://www.w3.org/2000/svg" width="50.797" height="41.865" viewBox="0 0 50.797 41.865">
  <g id="shoutout-service" transform="translate(-444.277 -1388.732)">
    <g id="megaphone_3_" data-name="megaphone (3)" transform="translate(444.541 1389)">
      <g id="Group_161" data-name="Group 161">
        <g id="Group_160" data-name="Group 160">
          <path id="Path_214" data-name="Path 214" d="M45.264,64.768A4.951,4.951,0,0,0,40.91,59.86V47.181a1.694,1.694,0,0,0-3.158-.851,20.3,20.3,0,0,1-12.539,9.362,26.648,26.648,0,0,1-7.82,1.035.981.981,0,0,0-.154,0H8.218a8.218,8.218,0,0,0-.781,16.4l2.721,11.188a3.286,3.286,0,0,0,3.2,2.516h1.888a3.294,3.294,0,0,0,3.2-4.073l-2.333-9.593h1.121a.977.977,0,0,0,.155,0A26.648,26.648,0,0,1,25.21,74.2a20.3,20.3,0,0,1,12.539,9.362,1.673,1.673,0,0,0,1.453.845,1.739,1.739,0,0,0,.452-.06,1.676,1.676,0,0,0,1.253-1.636V70.038A4.951,4.951,0,0,0,45.26,65.13v-.361ZM16.23,81.949l.31,1.276a1.33,1.33,0,0,1-1.293,1.645H13.36a1.327,1.327,0,0,1-1.293-1.016l-2.6-10.686h4.627l.694,2.852h-.469a.982.982,0,1,0,0,1.964h.947l.487,2h-.308a.982.982,0,0,0,0,1.964Zm.125-14.913h-6.1a.982.982,0,0,0,0,1.964h6.1v2.2H8.19a6.254,6.254,0,1,1,.028-12.508h8.137Zm22.591-6.23V81.758A22.643,22.643,0,0,0,25.684,72.3a29.6,29.6,0,0,0-7.365-1.1V58.7a29.6,29.6,0,0,0,7.365-1.1,22.644,22.644,0,0,0,13.262-9.46ZM43.3,65.129a2.985,2.985,0,0,1-2.389,2.922v-6.2A2.986,2.986,0,0,1,43.3,64.768Z" transform="translate(0 -45.484)" fill="#ffffff" stroke="#ffffff" stroke-width="0.5"/>
          <path id="Path_215" data-name="Path 215" d="M454.869,143.614a.978.978,0,0,0,.661-.256l2.833-2.58a.982.982,0,1,0-1.323-1.452l-2.833,2.58a.982.982,0,0,0,.661,1.708Z" transform="translate(-409.311 -129.879)" fill="#ffffff" stroke="#ffffff" stroke-width="0.5"/>
          <path id="Path_216" data-name="Path 216" d="M455.53,302.28a.982.982,0,1,0-1.323,1.452l2.833,2.58a.982.982,0,1,0,1.323-1.452Z" transform="translate(-409.311 -276.829)" fill="#ffffff" stroke="#ffffff" stroke-width="0.5"/>
          <path id="Path_217" data-name="Path 217" d="M473.01,233.68h-2.175a.982.982,0,0,0,0,1.964h2.175a.982.982,0,1,0,0-1.964Z" transform="translate(-423.709 -215.198)" fill="#ffffff" stroke="#ffffff" stroke-width="0.5"/>
          <path id="Path_218" data-name="Path 218" d="M55.07,265.535a.973.973,0,0,0-.09-.17.988.988,0,0,0-.441-.361,1.041,1.041,0,0,0-.184-.056.974.974,0,0,0-.384,0,.993.993,0,0,0-.184.056,1.011,1.011,0,0,0-.17.09.969.969,0,0,0-.361.441.993.993,0,0,0-.056.184.968.968,0,0,0-.02.192.985.985,0,0,0,.02.192,1.038,1.038,0,0,0,.056.184.994.994,0,0,0,.09.169.933.933,0,0,0,.122.149.951.951,0,0,0,.319.213.981.981,0,0,0,.184.056,1,1,0,0,0,.384,0,.98.98,0,0,0,.353-.146,1.057,1.057,0,0,0,.15-.123,1,1,0,0,0,.212-.318,1.039,1.039,0,0,0,.056-.184.983.983,0,0,0,.019-.192.967.967,0,0,0-.019-.192.992.992,0,0,0-.056-.184Z" transform="translate(-47.957 -243.378)" fill="#ffffff" stroke="#ffffff" stroke-width="0.5"/>
        </g>
      </g>
    </g>
  </g>
</svg>
