<svg id="play_1_" data-name="play (1)" xmlns="http://www.w3.org/2000/svg" width="42.349" height="42.349" viewBox="0 0 42.349 42.349">
  <g id="Group_8800" data-name="Group 8800">
    <g id="Group_8799" data-name="Group 8799">
      <path id="Path_1214" data-name="Path 1214" d="M36.148,6.2a21.178,21.178,0,1,0,6.2,14.973A21.108,21.108,0,0,0,36.148,6.2ZM34.333,34.333a18.622,18.622,0,0,1-26.317,0A18.726,18.726,0,0,1,2.571,21.174a18.6,18.6,0,1,1,37.206,0A18.726,18.726,0,0,1,34.333,34.333Z" fill="#232323"/>
    </g>
  </g>
  <g id="Group_8802" data-name="Group 8802" transform="translate(12.654 9.652)">
    <g id="Group_8801" data-name="Group 8801">
      <path id="Path_1215" data-name="Path 1215" d="M120.667,86.588a5.791,5.791,0,0,1-.4-.5l-.1-.1a1.811,1.811,0,0,0-.5-.353L112.2,81.345a.049.049,0,0,1-.05-.05l-7.512-4.336a2.846,2.846,0,0,0-2.117-.3,2.954,2.954,0,0,0-1.714,1.311,3.8,3.8,0,0,0-.3.655c-.05.151-.05.353-.1.555V96.772a2.754,2.754,0,0,0,2.773,2.773,2.283,2.283,0,0,0,.807-.151,3.08,3.08,0,0,0,.706-.353l7.411-4.285.1-.05,7.461-4.285c.05,0,.05-.05.1-.05a2.833,2.833,0,0,0,1.21-1.664A2.63,2.63,0,0,0,120.667,86.588ZM118.5,88.151a.108.108,0,0,1-.1.1h-.05l-7.411,4.336-.05.05-7.411,4.285c-.05,0-.05.05-.1.05a.049.049,0,0,0-.05.05h-.05c-.05,0-.1-.05-.151-.05a.185.185,0,0,1-.05-.151V79.328c.05-.05.1-.1.151-.1h.151l7.461,4.285.05.05L118.4,87.9l.05.05.05.05Z" transform="translate(-100.4 -76.578)" fill="#232323"/>
    </g>
  </g>
</svg>
