<svg xmlns="http://www.w3.org/2000/svg" width="47.802" height="41.849" viewBox="0 0 47.802 41.849">
  <g id="video-lesson" transform="translate(-0.727 -1.25)">
    <path id="Path_1208" data-name="Path 1208" d="M9.032,23.159H40.387a2.953,2.953,0,0,0,2.939-2.953V4.453A2.953,2.953,0,0,0,40.387,1.5H9.032a2.953,2.953,0,0,0-2.94,2.953V20.205a2.953,2.953,0,0,0,2.94,2.953ZM8.052,4.453a.984.984,0,0,1,.98-.984H40.387a.984.984,0,0,1,.98.984V20.205a.984.984,0,0,1-.98.984H9.032a.984.984,0,0,1-.98-.984Z" transform="translate(-0.079)" fill="#1c00b9" stroke="#1c00b9" stroke-width="0.5"/>
    <path id="Path_1209" data-name="Path 1209" d="M48.07,39.231l-4.41-11.814A2.953,2.953,0,0,0,40.9,25.5H8.351a2.953,2.953,0,0,0-2.757,1.917L1.185,39.231a2.953,2.953,0,0,0,2.757,3.99H45.318a2.953,2.953,0,0,0,2.753-3.99Zm-29.98,2.021,1.2-4.208a.984.984,0,0,1,.942-.715h8.8a.984.984,0,0,1,.943.715l1.2,4.208Zm27.227,0H33.209L31.858,36.5A2.953,2.953,0,0,0,29.03,34.36h-8.8A2.953,2.953,0,0,0,17.4,36.5l-1.351,4.749H3.942a.984.984,0,0,1-.918-1.33l4.41-11.814a.984.984,0,0,1,.918-.639H40.908a.984.984,0,0,1,.918.639l4.41,11.814a.984.984,0,0,1-.918,1.33Z" transform="translate(0 -0.372)" fill="#1c00b9" stroke="#1c00b9" stroke-width="0.5"/>
    <path id="Path_1210" data-name="Path 1210" d="M23.135,17.995,29.3,14.816A2.7,2.7,0,0,0,29.3,10L23.135,6.819a2.8,2.8,0,0,0-4.106,2.409v6.358a2.8,2.8,0,0,0,4.106,2.409ZM20.988,9.233a.84.84,0,0,1,1.254-.666l6.163,3.179a.721.721,0,0,1,0,1.313l-6.163,3.187a.84.84,0,0,1-1.252-.657Z" transform="translate(-0.28 -0.077)" fill="#1c00b9" stroke="#1c00b9" stroke-width="0.5"/>
  </g>
</svg>
